<ttFont>
<head>
    <!-- Most of this table will be recalculated by the compiler -->
    <tableVersion value="1.0"/>
    <fontRevision value="0.0"/>
    <checkSumAdjustment value="0xdbca3996"/>
    <magicNumber value="0x5f0f3cf5"/>
    <flags value="00000000 00000011"/>
    <unitsPerEm value="2048"/>
    <created value="Thu May  4 15:27:52 2017"/>
    <modified value="Thu May  4 22:27:56 2017"/>
    <xMin value="-136"/>
    <yMin value="-840"/>
    <xMax value="1402"/>
    <yMax value="2288"/>
<macStyle value="00000000 00000000"/>
    <lowestRecPPEM value="3"/>
    <fontDirectionHint value="2"/>
    <indexToLocFormat value="0"/>
    <glyphDataFormat value="0"/>
  </head>
          <CharString index="0">
            56 50 50 57 57 -50 50 -56 -56 -50 -50 -57 -57 50 -50 56 hvcurveto
            return
          </CharString>
          <CharString index="1">
            1152 602 rmoveto
            -12 callgsubr
            -239 vlineto
            2 callsubr
            -519 -505 rmoveto
            -236 -146 185 320 117 callgsubr
            320 146 185 236 236 146 -185 -320 125 callgsubr
            -61 callsubr
            vhcurveto
            return
          </CharString>
          <CharString index="2">
            rmoveto
            -107 callsubr
            382 55 callsubr
          </CharString>
          <CharString index="3">
            -640 hlineto
            56 callsubr
            -137 -193 -181 -85 99 211 vhcurveto
            667 -131 -700 vlineto
            -256 127 -139 235 167 126 76 136 59 vhcurveto
            13 -194 125 return
          </CharString>
          <CharString index="4">
            rmoveto
            88 41 -164 159 hhcurveto
            136 80 103 177 hvcurveto
            -123 hlineto
            -118 -25 -46 -64 vhcurveto
            -88 -41 162 -159 hhcurveto
            -137 -79 -102 -177 hvcurveto
            123 hlineto
            119 25 46 64 vhcurveto
            return
          </CharString>
          <CharString index="5">
            rmoveto
            -249 17 191 -156 287 hhcurveto
            290 191 162 246 216 -116 120 -281 73 hvcurveto
            -117 31 rlineto
            -200 52 -86 80 135 vvcurveto
            165 119 98 200 181 118 -95 -163 20 vhcurveto
            137 hlineto
            232 -14 -180 151 -262 hhcurveto
            -278 -181 -153 -235 -207 119 -123 271 -71 hvcurveto
            113 -29 rlineto
            206 -53 91 -86 -138 vvcurveto
            -171 -135 -112 -206 -202 -137 107 173 -19 vhcurveto
            return
          </CharString>
          <CharString index="6">
            147 -35 57 -52 -98 vvcurveto
            -118 -103 -76 -161 -150 -104 65 111 -28 vhcurveto
            -136 hlineto
            -177 20 159 -111 233 hhcurveto
            245 161 124 190 152 -94 91 -207 49 hvcurveto
            -146 34 rlineto
            -81 callgsubr
            return
          </CharString>
          <CharString index="7">
            633 96 rmoveto
            -228 -134 152 257 hvcurveto
            938 -136 -947 vlineto
            -76 callsubr
            947 -136 -938 vlineto
            -257 -134 -152 -228 vhcurveto
            return
          </CharString>
          <CharString index="8">
            286 466 rmoveto
            144 vlineto
            -93 callsubr
            315 -870 rmoveto
            283 165 149 255 hvcurveto
            116 callsubr
            -159 -37 callsubr
            155 118 63 110 52 vhcurveto
            18 -148 hlineto
            -190 -113 -106 -202 -153 -117 65 98 -24 vhcurveto
            -131 hlineto
            -172 24 161 -106 238 hhcurveto
            return
          </CharString>
          <CharString index="9">
            rmoveto
            -150 vlineto
            -155 -135 -120 -174 -149 -92 79 128 126 86 72 161 7 vhcurveto
            309 -340 rmoveto
            93 callgsubr
            vlineto
            -90 callsubr
            endchar
          </CharString>
          <CharString index="10">
            rmoveto
            -693 554 656 122 -656 519 693 124 -830 -55 callgsubr
            830 hlineto
            return
          </CharString>
          <CharString index="11">
            -137 -74 91 119 1 111 callgsubr
            -183 128 -136 215 215 128 136 183 vhcurveto
            -132 hlineto
            -119 1 -74 -91 -138 hhcurveto
            return
          </CharString>
          <CharString index="12">
            108 43 -20 -50 -50 -42 -28 -75 -36 -61 7 7 -24 hvcurveto
            -97 vlineto
            -14 49 31 -4 49 hhcurveto
            137 93 73 109 104 -72 56 -131 -2 hvcurveto
            return
          </CharString>
          <CharString index="13">
            rmoveto
            320 146 185 236 236 146 -185 -320 125 callgsubr
            -61 callsubr
            -236 -146 185 320 vhcurveto
            901 239 rmoveto
            398 -198 234 -321 -321 -198 -234 -398 125 callgsubr
            2 callsubr
            endchar
          </CharString>
          <CharString index="14">
            222 125 145 193 192 125 -144 -223 vhcurveto
            -144 vlineto
            -223 -125 -144 -192 -193 -125 145 222 vhcurveto
            return
          </CharString>
          <CharString index="15">
            rmoveto
            274 -372 -106 244 -865 -222 -106 695 106 -342 378 vlineto
            295 148 188 232 58 69 -12 -18 50 vhcurveto
            143 vlineto
            15 -34 -61 9 -62 hhcurveto
            -210 -142 -109 -192 -37 hvcurveto
            endchar
          </CharString>
          <CharString index="16">
            129 callgsubr
            -200 -125 143 233 vhcurveto
            126 vlineto
            233 125 143 200 200 125 -143 -233 vhcurveto
            131 17 rmoveto
            290 -178 186 -278 -278 -178 -186 -290 vhcurveto
            -13 callgsubr
            endchar
          </CharString>
          <CharString index="17">
            219 -142 128 -244 -208 -162 -115 -161 -20 36 callsubr
            104 30 94 58 136 hhcurveto
            165 89 -84 -155 hvcurveto
            -102 vlineto
            -312 -14 rlineto
            -238 -11 -135 -113 -189 vvcurveto
            -195 137 -128 207 163 119 67 121 51 vhcurveto
            return
          </CharString>
          <CharString index="18">
            40 callgsubr
            70 callgsubr
            -232 -124 -144 -201 -201 -124 144 232 vhcurveto
            126 vlineto
            232 124 144 201 vhcurveto
            456 -519 rmoveto
            160 vlineto
            162 -57 128 -101 65 vhcurveto
            6 64 vlineto
            94 58 59 94 hvcurveto
            171 -122 -132 vlineto
            -74 -29 -24 -88 vhcurveto
            -109 -40 21 -126 hhcurveto
            -278 -178 -186 -290 hvcurveto
            -13 callgsubr
            endchar
          </CharString>
          <CharString index="19">
            rmoveto
            118 -638 -118 vlineto
            return
          </CharString>
          <CharString index="20">
            330 1321 rmoveto
            327 hlineto
            206 116 -110 -196 -195 -118 -107 -214 hvcurveto
            -317 hlineto
            379 -118 rmoveto
            274 -595 rlineto
            154 hlineto
            -296 626 rlineto
            167 50 107 155 190 vvcurveto
            259 -174 163 -275 vhcurveto
            -470 -55 callgsubr
            134 595 hlineto
            return
          </CharString>
          <CharString index="21">
            rmoveto
            220 40 138 124 206 hhcurveto
            254 141 -184 -361 22 hvcurveto
            -591 -124 593 hlineto
            -383 -14 -142 -197 -263 hhcurveto
            -212 -134 110 204 -38 hvcurveto
            -138 hlineto
            -280 38 190 -160 294 hhcurveto
            361 199 267 484 484 -199 267 -361 -286 -200 -181 -290 -36 hvcurveto
            endchar
          </CharString>
          <CharString index="22">
            1209 1077 -81 callsubr
            return
          </CharString>
          <CharString index="23">
            1296 -80 callsubr
            return
          </CharString>
          <CharString index="24">
            rmoveto
            202 -28 -164 133 -223 hhcurveto
            -283 -170 -180 -300 hvcurveto
            -153 vlineto
            -300 170 -180 283 223 164 133 202 28 vhcurveto
            -130 hlineto
            -128 -22 -119 -89 -147 hhcurveto
            -205 -114 137 247 hvcurveto
            109 vlineto
            247 114 137 205 147 119 -89 -128 22 vhcurveto
            return
          </CharString>
          <CharString index="25">
            rmoveto
            -96 callsubr
            endchar
          </CharString>
          <CharString index="26">
            rmoveto
            -130 hlineto
            -171 -914 rlineto
            -12 hlineto
            -196 914 143 callgsubr
            -196 -914 rlineto
            -12 hlineto
            -171 914 rlineto
            -130 hlineto
            238 -1077 82 callsubr
            197 894 rlineto
            13 hlineto
            196 -894 82 callsubr
            return
          </CharString>
          <CharString index="27">
            rmoveto
            259 332 rlineto
            96 callsubr
            return
          </CharString>
          <CharString index="28">
            rmoveto
            119 83 92 131 hvcurveto
            -105 hlineto
            -78 -4 -35 -44 -57 -107 1 136 -169 hhcurveto
            -121 -81 -89 -133 hvcurveto
            106 hlineto
            80 3 33 42 59 107 -1 -137 169 hhcurveto
            return
          </CharString>
          <CharString index="29">
            rmoveto
            29 callsubr
            -655 vlineto
            -212 128 -105 259 62 101 6 6 32 vhcurveto
            -18 callgsubr
            651 451 74 callsubr
            vlineto
            return
          </CharString>
          <CharString index="30">
            -75 callgsubr
            endchar
          </CharString>
          <CharString index="31">
            -328 187 -198 311 311 187 198 328 vhcurveto
            return
          </CharString>
          <CharString index="32">
            rmoveto
            206 102 -207 -418 -418 -102 -207 -206 -206 -102 207 418 418 102 207 206 hvcurveto
            -600 -563 rmoveto
            660 -130 -55 callgsubr
            130 659 155 vlineto
            -476 27 138 -214 281 hhcurveto
            292 155 261 491 491 -155 261 -292 -274 -144 -223 -467 -28 hvcurveto
            endchar
          </CharString>
          <CharString index="33">
            1199 13 vlineto
            665 -1199 rlineto
            136 -39 callgsubr
            -128 -1198 -13 hlineto
            -662 1198 rlineto
            -139 101 callsubr
            return
          </CharString>
          <CharString index="34">
            rmoveto
            -142 hlineto
            -397 -965 rlineto
            -12 hlineto
            -412 965 rlineto
            -148 hlineto
            494 -1119 rlineto
            -145 -72 -74 -62 -104 hhcurveto
            -25 -25 3 6 -24 hvcurveto
            -124 vlineto
            -7 14 32 -5 28 hhcurveto
            185 102 99 310 133 hvcurveto
            return
          </CharString>
          <CharString index="35">
            -87 callgsubr
            endchar
          </CharString>
          <CharString index="36">
            rmoveto
            -71 -53 56 75 75 53 56 71 71 53 -56 -75 -75 -53 -56 -71 hvcurveto
            -95 vmoveto
            122 99 101 125 125 -99 101 -122 -122 -99 -101 -125 -125 99 -101 122 hvcurveto
            endchar
          </CharString>
          <CharString index="37">
            278 178 186 290 return
          </CharString>
          <CharString index="38">
            rmoveto
            213 -80 109 -157 -111 -91 -64 -98 -29 vhcurveto
            -14 hlineto
            102 -23 -73 60 -103 hhcurveto
            -99 -79 -62 -100 -28 hvcurveto
            -14 144 -119 -1077 123 721 hlineto
            159 66 97 108 102 52 -79 -154 vhcurveto
            -744 123 721 vlineto
            160 64 96 106 101 52 -79 -155 vhcurveto
            -743 123 vlineto
            return
          </CharString>
          <CharString index="39">
            -290 178 -186 278 return
          </CharString>
          <CharString index="40">
            174 153 callgsubr
            383 vlineto
            410 205 240 481 482 -205 240 -410 hvcurveto
            -246 -124 rmoveto
            238 hlineto
            327 156 -193 -405 -405 -156 -192 -327 hvcurveto
            -238 hlineto
            return
          </CharString>
          <CharString index="41">
            311 187 198 328 hvcurveto
            847 60 vlineto
            119 70 63 107 hvcurveto
            182 -122 -158 vlineto
            -64 -33 -30 -68 vhcurveto
            -162 -938 hlineto
            3 callgsubr
            26 callgsubr
            vhcurveto
            endchar
          </CharString>
          <CharString index="42">
            rmoveto
            122 hlineto
            221 131 -119 -200 56 callsubr
            -119 -221 hvcurveto
            -122 hlineto
            155 -123 rmoveto
            274 184 177 265 265 -184 177 -274 hvcurveto
            -155 559 43 callgsubr
            1028 52 callgsubr
            endchar
          </CharString>
          <CharString index="43">
            -28 callgsubr
            -378 170 -226 297 -26 vhcurveto
            -53 -136 rlineto
            -71 57 vlineto
            -95 callsubr
            45 117 rlineto
            250 24 173 176 238 vvcurveto
            10 callsubr
          </CharString>
          <CharString index="44">
            259 -68 callgsubr
            return
          </CharString>
          <CharString index="45">
            106 -369 971 -512 -106 381 -865 150 callsubr
            return
          </CharString>
          <CharString index="46">
            -320 -146 -185 -236 return
          </CharString>
          <CharString index="47">
            rmoveto
            -93 callsubr
            return
          </CharString>
          <CharString index="48">
            1077 -366 vlineto
            -238 -152 -130 -213 -158 102 -113 166 -34 hvcurveto
            -311 -429 142 callsubr
            293 407 rlineto
            218 -407 hlineto
            966 vmoveto
            -448 -235 vlineto
            -157 -102 89 130 142 101 87 158 hvcurveto
            endchar
          </CharString>
          <CharString index="49">
            rmoveto
            193 hlineto
            246 146 -107 -181 -176 -156 -124 -224 -213 -159 115 161 -11 111 callgsubr
            -234 10 214 -165 293 hhcurveto
            295 224 181 239 199 -136 139 -210 18 hvcurveto
            12 vlineto
            169 37 109 133 166 vvcurveto
            220 -191 159 -266 -275 -188 -153 -237 -17 vhcurveto
            134 hlineto
            162 14 134 106 193 hhcurveto
            196 128 -106 -162 -167 -134 -113 -197 hvcurveto
            -188 hlineto
            return
          </CharString>
          <CharString index="50">
            1177 10 vlineto
            332 -838 rlineto
            118 hlineto
            332 838 rlineto
            10 -1177 128 -39 callgsubr
            -158 hlineto
            -365 -924 rlineto
            -11 hlineto
            -367 924 rlineto
            -157 101 callsubr
            endchar
          </CharString>
          <CharString index="51">
            rmoveto
            -136 -947 hlineto
            -76 callsubr
            947 -136 -938 vlineto
            3 callgsubr
            endchar
          </CharString>
          <CharString index="52">
            rmoveto
            183 -128 136 -215 -215 -128 -136 -183 vhcurveto
            133 hlineto
            119 -1 74 91 137 hhcurveto
            138 74 -91 -119 -1 hvcurveto
            return
          </CharString>
          <CharString index="53">
            1095 rmoveto
            -153 -115 -60 -113 -63 hvcurveto
            -18 28 callsubr
            hlineto
            -113 51 118 -64 156 hhcurveto
            250 170 184 269 hvcurveto
            207 vlineto
            269 -170 184 -250 vhcurveto
            -29 -118 rmoveto
            193 125 -145 -222 hvcurveto
            -144 vlineto
            23 callgsubr
            vhcurveto
            return
          </CharString>
          <CharString index="54">
            -68 callsubr
            -70 callsubr
            vhcurveto
            return
          </CharString>
          <CharString index="55">
            378 530 rlineto
            -151 hlineto
            -291 -430 rlineto
            -12 hlineto
            -293 430 117 callsubr
            383 -535 -380 -542 rlineto
            150 hlineto
            294 440 rlineto
            return
          </CharString>
          <CharString index="56">
            984 124 -804 12 hlineto
            792 1207 rlineto
            100 -943 -124 766 -12 vlineto
            -795 -1208 rlineto
            return
          </CharString>
          <CharString index="57">
            1443 143 callgsubr
            return
          </CharString>
          <CharString index="58">
            -3 -65 -36 -487 -5 -57 rrcurveto
            -247 -20 -53 -107 -103 hhcurveto
            -18 -25 4 4 -13 hvcurveto
            -121 vlineto
            -6 16 25 -4 21 hhcurveto
            182 86 138 334 28 hvcurveto
            6 55 29 387 3 61 rrcurveto
            return
          </CharString>
          <CharString index="59">
            rmoveto
            -238 332 rlineto
            7 callsubr
            return
          </CharString>
          <CharString index="60">
            1556 -97 callgsubr
            return
          </CharString>
          <CharString index="61">
            -67 callgsubr
            -401 192 -231 332 282 return
          </CharString>
          <CharString index="62">
            -642 -660 642 -137 -55 callgsubr
            137 677 660 -677 return
          </CharString>
          <CharString index="63">
            rmoveto
            224 704 rlineto
            2 hlineto
            224 -704 rlineto
            318 -560 rmoveto
            -476 -50 callsubr
            -476 -55 callgsubr
            rlineto
            140 hlineto
            141 442 rlineto
            524 hlineto
            return
          </CharString>
          <CharString index="64">
            426 417 rlineto
            -166 hlineto
            -506 -507 rlineto
            -12 936 -131 -1506 131 408 hlineto
            34 callsubr
            return
          </CharString>
          <CharString index="65">
            25 callsubr
            547 -219 rmoveto
            -140 hlineto
            -325 -934 rlineto
            -12 hlineto
            -326 934 rlineto
            -142 hlineto
            404 -1084 -22 -67 rlineto
            -143 -53 -54 -50 -99 hhcurveto
            -16 -28 1 3 -15 hvcurveto
            -114 vlineto
            -2 17 28 -2 16 hhcurveto
            176 76 70 259 96 hvcurveto
            endchar
          </CharString>
          <CharString index="66">
            rmoveto
            116 364 98 callgsubr
            -102 -364 rlineto
            endchar
          </CharString>
          <CharString index="67">
            rmoveto
            7 callsubr
            151 hlineto
            -614 332 rmoveto
            7 callsubr
            151 hlineto
            return
          </CharString>
          <CharString index="68">
            1544 rmoveto
            -56 -50 -50 -57 -57 50 -50 56 56 50 50 57 57 -50 50 -56 hvcurveto
            -382 hmoveto
            -56 -50 -50 -57 -57 50 -50 56 56 50 50 57 57 -50 50 -56 hvcurveto
            510 189 -88 callsubr
            return
          </CharString>
          <CharString index="69">
            818 111 -659 12 hlineto
            658 853 rlineto
            101 -816 -111 659 -12 vlineto
            -660 -854 rlineto
            return
          </CharString>
          <CharString index="70">
            -18 vlineto
            -83 callgsubr
            return
          </CharString>
          <CharString index="71">
            -174 hlineto
            326 -297 rlineto
            return
          </CharString>
          <CharString index="72">
            332 883 rmoveto
            397 250 97 -250 129 -125 -129 -177 -97 177 -1280 131 640 vlineto
            -98 callgsubr
            endchar
          </CharString>
          <CharString index="73">
            rmoveto
            -61 callsubr
            -111 -91 41 77 -66 vhcurveto
            596 917 rlineto
            35 -78 19 -97 -116 vvcurveto
            -764 hmoveto
            320 146 185 236 110 91 -40 -76 65 vhcurveto
            -595 -917 rlineto
            -34 78 -19 97 114 vvcurveto
            911 841 rmoveto
            -125 hlineto
            -62 -96 rlineto
            82 -87 -116 44 -139 hhcurveto
            -321 -198 -234 -398 75 callgsubr
            -172 37 -142 68 -105 vhcurveto
            -118 -183 rlineto
            125 hlineto
            63 98 rlineto
            -83 87 117 -45 140 hhcurveto
            -61 callgsubr
            117 callgsubr
            174 -38 142 -69 106 vhcurveto
            endchar
          </CharString>
          <CharString index="74">
            rmoveto
            -53 callgsubr
            199 -513 rmoveto
            35 33 5 9 25 hvcurveto
            104 vlineto
            -5 -17 -22 -2 -28 hhcurveto
            -72 -51 44 64 80 38 49 152 118 hvcurveto
            162 125 65 158 269 vvcurveto
            239 vlineto
            394 -195 238 -324 -324 -195 -238 -394 125 callgsubr
            -386 191 -242 304 52 51 11 18 32 vhcurveto
            -13 vlineto
            -96 -62 -42 -65 -87 84 callsubr
            vhcurveto
            endchar
          </CharString>
          <CharString index="75">
            140 hmoveto
            374 685 rlineto
            57 -685 122 685 57 hlineto
            374 -685 rlineto
            142 hlineto
            -418 745 374 698 98 callgsubr
            -332 -652 rlineto
            -57 652 -122 -652 -57 hlineto
            -333 652 rlineto
            -142 hlineto
            376 -701 -415 -742 rlineto
            return
          </CharString>
          <CharString index="76">
            1402 438 rmoveto
            244 return
          </CharString>
          <CharString index="77">
            -219 rmoveto
            -131 -159 -18 hlineto
            -83 callgsubr
            155 118 63 110 52 vhcurveto
            18 -148 hlineto
            -190 -113 -106 -202 -153 -117 65 98 -24 vhcurveto
            -131 hlineto
            -172 24 161 -106 238 hhcurveto
            283 165 149 255 hvcurveto
            -763 46 callsubr
            endchar
          </CharString>
          <CharString index="78">
            129 callgsubr
            -87 -73 27 50 -55 vhcurveto
            490 647 rlineto
            32 -60 18 -74 -88 vvcurveto
            -650 hmoveto
            233 125 143 200 86 73 -27 -48 54 vhcurveto
            -488 -648 rlineto
            -32 59 -18 75 87 vvcurveto
            792 602 rmoveto
            -122 hlineto
            -56 -74 rlineto
            59 -75 -98 32 -116 138 callsubr
            -128 35 -107 62 -81 vhcurveto
            -107 -142 rlineto
            118 hlineto
            56 74 rlineto
            -59 76 99 -33 117 hhcurveto
            144 callsubr
            128 -35 108 -62 80 vhcurveto
            endchar
          </CharString>
          <CharString index="79">
            893 -10 rmoveto
            64 73 9 14 57 hvcurveto
            112 vlineto
            -12 -52 -66 -7 -61 hhcurveto
            -145 -65 55 124 hvcurveto
            792 -502 -111 371 -699 vlineto
            -186 107 -91 219 vhcurveto
            return
          </CharString>
          <CharString index="80">
            863 1077 rmoveto
            -642 -106 511 -953 50 callsubr
            -80 -110 4 6 -62 vhcurveto
            -110 126 callsubr
            return
          </CharString>
          <CharString index="81">
            845 681 rmoveto
            122 -188 vlineto
            -197 -134 113 167 162 128 106 196 193 134 -106 -162 14 hvcurveto
            134 hlineto
            237 -17 -188 153 -275 hhcurveto
            -266 -191 -159 -220 -177 109 -122 169 -37 hvcurveto
            -12 vlineto
            -210 -18 -136 -128 -210 vvcurveto
            -250 214 -170 305 293 214 165 234 10 vhcurveto
            -133 hlineto
            -161 -11 -159 -115 -213 hhcurveto
            -225 -155 117 183 181 146 107 246 hvcurveto
            return
          </CharString>
          <CharString index="82">
            -156 118 -121 152 71 58 27 58 52 vhcurveto
            14 hlineto
            -39 -129 -118 -93 -158 -26 rrcurveto
            -97 vlineto
            124 17 113 55 79 82 rrcurveto
            85 86 45 111 122 vvcurveto
            202 -127 142 -181 -164 -124 -121 -159 vhcurveto
            return
          </CharString>
          <CharString index="83">
            938 -136 -947 vlineto
            return
          </CharString>
          <CharString index="84">
            -79 -86 -114 -46 -161 hhcurveto
            -216 -147 139 232 hvcurveto
            392 -137 -402 vlineto
            -287 193 -201 306 144 120 39 70 87 vhcurveto
            11 return
          </CharString>
          <CharString index="85">
            638 -18 rmoveto
            243 201 138 191 35 111 callgsubr
            -126 -31 -138 -84 -178 hhcurveto
            -191 -122 77 119 118 110 74 175 hvcurveto
            156 118 -155 hlineto
            -171 -101 67 113 118 115 72 190 170 124 -75 -121 28 hvcurveto
            132 hlineto
            199 -33 -166 115 -254 hhcurveto
            -257 -177 -125 -183 -117 68 -84 123 -36 hvcurveto
            -12 vlineto
            -136 -38 -76 -89 -122 vvcurveto
            -184 180 -123 269 vhcurveto
            return
          </CharString>
          <CharString index="86">
            -48 callgsubr
            -509 return
          </CharString>
          <CharString index="87">
            -104 callgsubr
            endchar
          </CharString>
          <CharString index="88">
            1114 124 rmoveto
            -703 1319 -136 -55 callgsubr
            839 hlineto
            return
          </CharString>
          <CharString index="89">
            rmoveto
            261 201 144 191 35 111 callgsubr
            -126 -31 -138 -89 -194 hhcurveto
            -175 -122 58 137 118 104 74 175 hvcurveto
            162 118 -161 hlineto
            -171 -95 67 113 118 115 71 180 180 124 -54 -161 28 hvcurveto
            132 hlineto
            239 -33 -171 95 -254 hhcurveto
            -279 -150 -123 -185 -117 58 -84 123 -36 hvcurveto
            -12 vlineto
            -136 -38 -66 -89 -122 vvcurveto
            -196 153 -111 278 vhcurveto
            return
          </CharString>
          <CharString index="90">
            824 -39 callsubr
            return
          </CharString>
          <CharString index="91">
            1617 -82 callgsubr
            return
          </CharString>
          <CharString index="92">
            800 758 rmoveto
            169 37 109 133 166 vvcurveto
            220 -191 159 -266 -275 -188 -153 -237 -17 vhcurveto
            134 hlineto
            162 14 134 106 193 hhcurveto
            196 128 -106 -162 -167 -134 -113 -197 hvcurveto
            -188 -122 193 hlineto
            246 146 -107 -181 -176 -156 -124 -224 -213 -159 115 161 -11 111 callgsubr
            9 return
          </CharString>
          <CharString index="93">
            651 -19 rmoveto
            253 159 139 189 32 111 callgsubr
            -126 -32 -111 -83 -168 hhcurveto
            -204 -137 158 243 -11 hvcurveto
            530 112 -528 hlineto
            222 17 139 141 194 hhcurveto
            171 110 -97 -120 31 hvcurveto
            133 hlineto
            184 -31 -161 152 -253 hhcurveto
            -296 -189 -216 -335 -345 189 -218 296 hvcurveto
            return
          </CharString>
          <CharString index="94">
            -440 rmoveto
            -104 callgsubr
            return
          </CharString>
          <CharString index="95">
            701 hmoveto
            -11 callsubr
            return
          </CharString>
          <CharString index="96">
            1319 444 0 callsubr
            vlineto
            return
          </CharString>
          <CharString index="97">
            16 callsubr
            36 callgsubr
            return
          </CharString>
          <CharString index="98">
            572 -6 callgsubr
            23 return
          </CharString>
          <CharString index="99">
            -83 callsubr
            endchar
          </CharString>
          <CharString index="100">
            442 44 callgsubr
            return
          </CharString>
          <CharString index="101">
            90 callgsubr
            -19 -119 rmoveto
            16 hlineto
            234 76 -153 -450 -450 -76 -153 -234 hvcurveto
            -16 hlineto
            534 -118 71 callsubr
          </CharString>
          <CharString index="102">
            1122 857 rmoveto
            -702 hlineto
            311 11 119 179 225 hhcurveto
            212 135 -149 -318 hvcurveto
            135 -147 rmoveto
            150 vlineto
            353 -167 237 -315 -305 -160 -219 -397 -25 vhcurveto
            -96 -44 43 91 76 23 51 0 hvcurveto
            -128 hlineto
            0 -29 -57 -74 vvcurveto
            -152 71 -102 199 vhcurveto
            -71 vlineto
            return
          </CharString>
          <CharString index="103">
            -2 callgsubr
            -1032 131 1065 vlineto
            256 -127 139 -235 -167 -126 -76 -136 -59 vhcurveto
            -13 7 hlineto
            138 -6 -64 59 -126 hhcurveto
            -37 -28 -3 -7 -19 hvcurveto
            -111 vlineto
            3 19 17 2 17 hhcurveto
            73 29 -38 -99 hvcurveto
            -834 vlineto
            endchar
          </CharString>
          <CharString index="104">
            -155 -40 -49 -139 -42 -57 7 3 -33 vhcurveto
            -110 vlineto
            -4 46 41 -7 48 hhcurveto
            216 91 89 214 hvcurveto
            return
          </CharString>
          <CharString index="105">
            421 612 rmoveto
            230 113 137 189 184 110 132 callgsubr
            -155 184 -272 -261 -172 -186 -284 vhcurveto
            -13 -5 vlineto
            -97 -54 56 90 75 23 56 0 hvcurveto
            -118 hlineto
            0 -29 -57 -74 vvcurveto
            -152 86 -102 185 vhcurveto
            9 -36 hlineto
            return
          </CharString>
          <CharString index="106">
            317 53 callgsubr
            return
          </CharString>
          <CharString index="107">
            124 -1024 -124 444 -1319 return
          </CharString>
          <CharString index="108">
            rmoveto
            116 hlineto
            124 327 rlineto
            -152 hlineto
            endchar
          </CharString>
          <CharString index="109">
            -398 198 -234 321 -61 callgsubr
            vhcurveto
            return
          </CharString>
          <CharString index="110">
            239 vlineto
            -38 callgsubr
            return
          </CharString>
          <CharString index="111">
            188 hmoveto
            862 -285 124 396 -174 966 -675 hlineto
            -15 -221 -23 -329 -5 -59 -15 -188 -45 -123 -71 -46 rrcurveto
            -87 -396 124 hlineto
            120 396 rmoveto
            12 vlineto
            51 62 32 112 14 166 12 147 23 315 2 41 rrcurveto
            427 -855 hlineto
            endchar
          </CharString>
          <CharString index="112">
            1914 rmoveto
            -115 -89 -84 -123 -123 -89 84 115 vhcurveto
            -118 hlineto
            -175 136 -122 194 194 136 122 175 vhcurveto
            return
          </CharString>
          <CharString index="113">
            638 915 -87 callgsubr
            return
          </CharString>
          <CharString index="114">
            -172 hlineto
            259 -332 rlineto
            return
          </CharString>
          <CharString index="115">
            1377 -88 callsubr
            return
          </CharString>
          <CharString index="116">
            160 callsubr
            124 -68 callgsubr
            return
          </CharString>
          <CharString index="117">
            -137 hlineto
            -195 -6 -132 -119 -209 hhcurveto
            -20 callgsubr
            hvcurveto
            endchar
          </CharString>
          <CharString index="118">
            -162 125 -99 205 205 125 99 162 vhcurveto
            return
          </CharString>
          <CharString index="119">
            1914 rmoveto
            -174 hlineto
            -310 103 callsubr
            return
          </CharString>
          <CharString index="120">
            190 623 rlineto
            -144 hlineto
            -162 -623 rlineto
            return
          </CharString>
          <CharString index="121">
            35 callsubr
            621 -30 rmoveto
            205 114 147 264 hvcurveto
            1062 -513 -121 382 -936 vlineto
            -192 -63 -97 -125 -115 -72 88 145 -6 vhcurveto
            -132 hlineto
            -220 2 127 -140 196 hhcurveto
            endchar
          </CharString>
          <CharString index="122">
            hlineto
            -125 -45 -81 -112 -47 -38 1 2 -19 vhcurveto
            -121 vlineto
            -3 24 34 -3 58 hhcurveto
            return
          </CharString>
          <CharString index="123">
            4 callgsubr
            -701 return
          </CharString>
          <CharString index="124">
            rmoveto
            151 hlineto
            -63 callsubr
            return
          </CharString>
          <CharString index="125">
            -1296 rmoveto
            24 callgsubr
          </CharString>
          <CharString index="126">
            484 hmoveto
            131 966 491 111 -491 120 hlineto
            121 89 63 170 73 102 -5 -7 57 vhcurveto
            110 vlineto
            7 -43 -113 7 -76 hhcurveto
            -256 -134 -101 -191 hvcurveto
            -124 -290 -111 290 vlineto
            return
          </CharString>
          <CharString index="127">
            8 callsubr
            360 291 rmoveto
            229 296 rlineto
            -154 hlineto
            -207 -296 rlineto
            return
          </CharString>
          <CharString index="128">
            68 callsubr
            105 106 -105 hlineto
            -211 -106 rmoveto
            105 106 -105 hlineto
            return
          </CharString>
          <CharString index="129">
            -106 hlineto
            1160 105 139 callgsubr
            -212 -106 rmoveto
            106 106 -106 hlineto
            -211 -106 rmoveto
            106 106 -106 hlineto
            -210 134 callgsubr
            949 return
          </CharString>
          <CharString index="130">
            173 623 rlineto
            -137 hlineto
            -159 -623 rlineto
            return
          </CharString>
          <CharString index="131">
            rmoveto
            -207 296 rlineto
            -154 103 callgsubr
            360 -291 -73 callgsubr
          </CharString>
          <CharString index="132">
            708 -84 callsubr
            return
          </CharString>
          <CharString index="133">
            -99 callgsubr
            194 -125 hlineto
            return
          </CharString>
          <CharString index="134">
            778 31 callsubr
            return
          </CharString>
          <CharString index="135">
            155 -125 -1442 131 524 18 return
          </CharString>
          <CharString index="136">
            -280 -290 -111 290 return
          </CharString>
          <CharString index="137">
            -147 94 -94 192 -45 return
          </CharString>
          <CharString index="138">
            1632 -79 callgsubr
            return
          </CharString>
          <CharString index="139">
            rmoveto
            243 217 rlineto
            -168 hlineto
            -224 -217 rlineto
            445 -212 115 callsubr
            return
          </CharString>
          <CharString index="140">
            177 -128 121 -188 -188 -128 -121 -177 vhcurveto
            return
          </CharString>
          <CharString index="141">
            166 162 390 -570 rlineto
            return
          </CharString>
          <CharString index="142">
            -39 callgsubr
            91 callsubr
            return
          </CharString>
          <CharString index="143">
            vhcurveto
            130 hlineto
            return
          </CharString>
          <CharString index="144">
            633 49 callgsubr
            return
          </CharString>
          <CharString index="145">
            -103 -79 -60 -133 -133 -79 60 103 vhcurveto
            return
          </CharString>
          <CharString index="146">
            -222 -125 -145 -193 return
          </CharString>
          <CharString index="147">
            rmoveto
            40 callgsubr
            70 callgsubr
            -232 -124 -144 -201 -201 -124 144 232 vhcurveto
            126 vlineto
            232 124 144 201 vhcurveto
            return
          </CharString>
          <CharString index="148">
            473 724 rlineto
            -145 hlineto
            -393 -609 rlineto
            -5 hlineto
            -389 609 117 callsubr
            465 -719 -469 -724 rlineto
            145 hlineto
            392 606 rlineto
            5 hlineto
            return
          </CharString>
          <CharString index="149">
            -294 rmoveto
            -5 -14 -34 -4 -24 hhcurveto
            -83 -46 43 79 57 38 71 58 53 hvcurveto
            -126 hlineto
            -73 -69 -34 -69 -81 vvcurveto
            -121 91 -78 142 43 46 8 10 16 vhcurveto
            endchar
          </CharString>
          <CharString index="150">
            1278 vlineto
            endchar
          </CharString>
          <CharString index="151">
            633 773 rmoveto
            16 callgsubr
            -67 -1108 rmoveto
            178 696 rlineto
            -197 hlineto
            -129 -696 rlineto
            endchar
          </CharString>
          <CharString index="152">
            -136 hlineto
            -136 -1332 rmoveto
            36 callgsubr
            -1196 -565 -136 vlineto
            return
          </CharString>
          <CharString index="153">
            610 -60 callsubr
            return
          </CharString>
          <CharString index="154">
            rmoveto
            -121 -1077 121 500 71 hlineto
            536 -500 rlineto
            175 hlineto
            -601 560 575 517 rlineto
            -164 hlineto
            -521 -472 rlineto
            -71 hlineto
            endchar
          </CharString>
          <CharString index="155">
            1307 rmoveto
            -104 callgsubr
            return
          </CharString>
          <CharString index="156">
            rmoveto
            96 callsubr
            151 hlineto
            return
          </CharString>
          <CharString index="157">
            hlineto
            -173 -64 -49 -225 return
          </CharString>
          <CharString index="158">
            1770 rmoveto
            69 25 47 65 70 vvcurveto
            87 -68 59 -100 -48 -52 -8 -11 -23 vhcurveto
            -82 vlineto
            11 20 41 8 33 hhcurveto
            51 35 -28 -41 -41 -31 -37 -49 -19 hvcurveto
            return
          </CharString>
          <CharString index="159">
            -52 -41 -41 -52 60 callgsubr
            return
          </CharString>
          <CharString index="160">
            -74 callsubr
            endchar
          </CharString>
          <CharString index="161">
            1332 -701 -136 565 149 callgsubr
          </CharString>
          <CharString index="162">
            hmoveto
            -107 callsubr
            endchar
          </CharString>
          <CharString index="163">
            -200 -131 return
          </CharString>
          <CharString index="164">
            -131 -1054 50 callsubr
            return
          </CharString>
          <CharString index="165">
            136 1332 return
          </CharString>
          <CharString index="166">
            -159 -66 -97 -108 -102 -52 79 154 vhcurveto
            744 -123 -721 vlineto
            -160 -64 -96 -106 -101 -52 79 155 vhcurveto
            743 -123 return
          </CharString>
          <CharString index="167">
            -58 -2 -38 -40 -55 -93 -30 126 -152 hhcurveto
            -113 -78 -80 -117 hvcurveto
            106 hlineto
            60 1 36 38 57 93 30 -126 152 hhcurveto
            return
          </CharString>
          <CharString index="168">
            -1296 rmoveto
            78 callgsubr
          </CharString>
          <CharString index="169">
            121 81 85 115 115 81 -85 -121 vhcurveto
            return
          </CharString>
          <CharString index="170">
            rmoveto
            -638 -118 638 hlineto
            return
          </CharString>
          <CharString index="171">
            627 1819 rmoveto
            12 hlineto
            190 -202 109 callsubr
            -289 297 rlineto
            -124 hlineto
            -289 -297 109 callsubr
            return
          </CharString>
          <CharString index="172">
            133 callsubr
            472 hmoveto
            87 callsubr
          </CharString>
          <CharString index="173">
            rlineto
            -157 hlineto
            return
          </CharString>
          <CharString index="174">
            136 -701 136 701 129 callsubr
            return
          </CharString>
          <CharString index="175">
            rmoveto
            105 106 -105 hlineto
            -211 158 callgsubr
            return
          </CharString>
          <CharString index="176">
            633 1024 -633 hlineto
            return
          </CharString>
          <CharString index="177">
            rmoveto
            -124 144 -96 186 186 144 96 124 vhcurveto
            -118 hlineto
            -67 -95 -55 -117 -117 -95 55 67 vhcurveto
            return
          </CharString>
          <CharString index="178">
            -3 callgsubr
            endchar
          </CharString>
          <CharString index="179">
            -136 565 39 callgsubr
            161 callsubr
          </CharString>
          <CharString index="180">
            hmoveto
            -106 105 106 vlineto
            316 hmoveto
            149 callsubr
            return
          </CharString>
          <CharString index="181">
            111 -451 280 return
          </CharString>
          <CharString index="182">
            23 callsubr
            479 hmoveto
            23 callsubr
            return
          </CharString>
          <CharString index="183">
            rmoveto
            207 335 rlineto
            -141 hlineto
            -132 -245 rlineto
            -16 hlineto
            -132 245 rlineto
            -141 hlineto
            207 -335 rlineto
            return
          </CharString>
          <CharString index="184">
            1617 115 callsubr
            445 212 6 callgsubr
            endchar
          </CharString>
          <CharString index="185">
            -132 141 callgsubr
            684 44 hlineto
            681 -684 rlineto
            return
          </CharString>
          <CharString index="186">
            249 170 132 195 128 -95 97 -153 27 hvcurveto
            return
          </CharString>
          <CharString index="187">
            -670 -1198 rlineto
            -13 1198 -124 141 callgsubr
            hlineto
            673 1199 rlineto
            13 -1199 return
          </CharString>
          <CharString index="188">
            1266 581 rmoveto
            116 -1266 -116 vlineto
            endchar
          </CharString>
          <CharString index="189">
            rlineto
            135 hlineto
            return
          </CharString>
          <CharString index="190">
            -144 vlineto
            39 callsubr
            return
          </CharString>
          <CharString index="191">
            vvcurveto
            -112 94 -80 132 return
          </CharString>
          <CharString index="192">
            238 vlineto
            327 156 -193 -405 -405 -156 -192 -327 hvcurveto
            -375 1319 rmoveto
            return
          </CharString>
          <CharString index="193">
            rmoveto
            285 hlineto
            192 101 -130 -131 -154 -107 -122 -180 -186 -105 132 143 hvcurveto
            return
          </CharString>
          <CharString index="194">
            13 callsubr
            endchar
          </CharString>
          <CharString index="195">
            104 callsubr
            58 callsubr
            565 136 return
          </CharString>
          <CharString index="196">
            -136 628 120 callgsubr
            return
          </CharString>
          <CharString index="197">
            -58 callgsubr
            endchar
          </CharString>
          <CharString index="198">
            -136 -55 callgsubr
            vlineto
            return
          </CharString>
          <CharString index="199">
            -464 vmoveto
            1266 return
          </CharString>
          <CharString index="200">
            -598 -869 rlineto
            -13 869 92 callgsubr
            hlineto
            599 869 rlineto
            12 -869 return
          </CharString>
          <CharString index="201">
            -130 hlineto
            -105 -33 -102 -62 -142 hhcurveto
            -194 -123 143 225 hvcurveto
            37 vlineto
            endchar
          </CharString>
          <CharString index="202">
            -190 -623 rlineto
            144 hlineto
            162 623 rlineto
            return
          </CharString>
          <CharString index="203">
            -172 hlineto
            -238 -332 rlineto
            return
          </CharString>
          <CharString index="204">
            rlineto
            -155 hlineto
            return
          </CharString>
          <CharString index="205">
            169 1077 rmoveto
            -111 398 -966 132 966 398 111 vlineto
            endchar
          </CharString>
          <CharString index="206">
            -244 -1278 -647 54 callgsubr
          </CharString>
          <CharString index="207">
            76 254 hvcurveto
            -39 callgsubr
            vlineto
            endchar
          </CharString>
          <CharString index="208">
            -55 callgsubr
            hlineto
            return
          </CharString>
          <CharString index="209">
            -286 128 410 return
          </CharString>
          <CharString index="210">
            -297 rlineto
            158 hlineto
            return
          </CharString>
          <CharString index="211">
            701 -840 rmoveto
            return
          </CharString>
          <CharString index="212">
            -214 rmoveto
            -61 -53 -52 -61 -61 53 -52 61 61 53 52 61 61 -53 52 -61 hvcurveto
            return
          </CharString>
          <CharString index="213">
            144 vlineto
            222 125 145 193 192 125 -144 -223 vhcurveto
            return
          </CharString>
          <CharString index="214">
            -36 callgsubr
            endchar
          </CharString>
          <CharString index="215">
            927 hmoveto
            131 1077 -850 -1077 131 966 588 hlineto
            endchar
          </CharString>
          <CharString index="216">
            rlineto
            155 hlineto
            return
          </CharString>
          <CharString index="217">
            1109 1077 rmoveto
            -950 -111 210 return
          </CharString>
          <CharString index="218">
            423 116 -423 451 -114 -451 -423 -116 423 return
          </CharString>
          <CharString index="219">
            77 83 106 48 137 hhcurveto
            205 123 -129 -222 hvcurveto
            -412 return
          </CharString>
          <CharString index="220">
            -67 -54 -57 -70 -70 54 -57 67 return
          </CharString>
          <CharString index="221">
            186 51 callgsubr
            return
          </CharString>
          <CharString index="222">
            rmoveto
            98 -638 -98 vlineto
            return
          </CharString>
          <CharString index="223">
            1077 -131 return
          </CharString>
          <CharString index="224">
            rlineto
            -158 hlineto
            return
          </CharString>
          <CharString index="225">
            vlineto
            280 -164 188 -302 -133 -114 -53 -56 -67 vhcurveto
            return
          </CharString>
          <CharString index="226">
            -244 140 callgsubr
            return
          </CharString>
          <CharString index="227">
            755 -840 rmoveto
            return
          </CharString>
          <CharString index="228">
            -192 -147 156 202 202 147 156 192 return
          </CharString>
          <CharString index="229">
            820 133 callsubr
            return
          </CharString>
          <CharString index="230">
            160 callgsubr
            -1332 vlineto
            endchar
          </CharString>
          <CharString index="231">
            136 116 callgsubr
          </CharString>
          <CharString index="232">
            -136 701 return
          </CharString>
          <CharString index="233">
            vlineto
            -8 86 78 -3 91 18 callgsubr
            return
          </CharString>
          <CharString index="234">
            125 callsubr
            -1196 147 callgsubr
          </CharString>
          <CharString index="235">
            125 callsubr
            39 callgsubr
            vlineto
            endchar
          </CharString>
          <CharString index="236">
            136 -701 1196 -136 return
          </CharString>
          <CharString index="237">
            -244 647 -1278 return
          </CharString>
          <CharString index="238">
            -106 rmoveto
            105 106 -105 hlineto
            210 -106 rmoveto
            106 106 -106 hlineto
            return
          </CharString>
          <CharString index="239">
            1077 74 callgsubr
            return
          </CharString>
          <CharString index="240">
            rmoveto
            13 callsubr
            return
          </CharString>
          <CharString index="241">
            -105 rmoveto
            105 105 -105 hlineto
            210 -105 rmoveto
            106 105 -106 hlineto
            return
          </CharString>
          <CharString index="242">
            120 -59 59 -246 96 vhcurveto
            -290 113 -96 return
          </CharString>
          <CharString index="243">
            701 58 callgsubr
            return
          </CharString>
          <CharString index="244" raw="1">
            06fb6722 15f4f422 06fb6722 150b
          </CharString>
          <CharString index="245">
            hhcurveto
            -278 -178 -186 -290 hvcurveto
            -160 vlineto
            return
          </CharString>
          <CharString index="246">
            rmoveto
            237 136 -237 hlineto
            return
          </CharString>
          <CharString index="247">
            1278 -136 return
          </CharString>
          <CharString index="248">
            hmoveto
            -106 -106 106 vlineto
            return
          </CharString>
          <CharString index="249">
            rlineto
            157 hlineto
            return
          </CharString>
          <CharString index="250">
            -1617 rmoveto
            return
          </CharString>
          <CharString index="251">
            -70 callsubr
            hvcurveto
            160 vlineto
            return
          </CharString>
          <CharString index="252">
            hmoveto
            -105 105 105 vlineto
            316 hmoveto
            -105 106 105 vlineto
            return
          </CharString>
          <CharString index="253">
            438 rmoveto
            837 244 -837 hlineto
            endchar
          </CharString>
          <CharString index="254">
            -106 rmoveto
            -106 106 106 hlineto
            return
          </CharString>
          <CharString index="255">
            105 vlineto
            -527 hmoveto
            -105 return
          </CharString>
          <CharString index="256">
            -106 106 106 vlineto
            return
          </CharString>
          <CharString index="257">
            -379 -106 vlineto
            return
          </CharString>
          <CharString index="258">
            hhcurveto
            161 95 99 167 hvcurveto
            -116 hlineto
            return
          </CharString>
          <CharString index="259">
            136 384 -136 hlineto
            return
          </CharString>
          <CharString index="260">
            136 -1538 return
          </CharString>
          <CharString index="261">
            -106 hlineto
            -211 return
          </CharString>
          <CharString index="262">
            -1077 128 return
          </CharString>
          <CharString index="263">
            221 146 178 269 276 return
          </CharString>
          <CharString index="264">
            560 vmoveto
            69 callsubr
            return
          </CharString>
          <CharString index="265">
            -386 rmoveto
            638 118 -638 hlineto
            return
          </CharString>
          <CharString index="266">
            130 callsubr
            vlineto
            endchar
          </CharString>
          <CharString index="267">
            rmoveto
            129 hlineto
            return
          </CharString>
          <CharString index="268">
            136 hlineto
            endchar
          </CharString>
        <CharString name=".notdef">
          endchar
        </CharString>
        <CharString name="A">
          408 560 -103 callgsubr
        </CharString>
        <CharString name="AE">
          332 589 -42 callgsubr
        </CharString>
        <CharString name="AEacute">
          1225 12 callsubr
          -567 -1028 -42 callgsubr
        </CharString>
        <CharString name="AEmacron">
          1167 1832 63 callsubr
          -835 -1125 -42 callgsubr
        </CharString>
        <CharString name="Aacute">
          1010 12 callsubr
          -276 -1057 -103 callgsubr
        </CharString>
        <CharString name="Abreve">
          845 5 callsubr
          -555 -1354 -103 callgsubr
        </CharString>
        <CharString name="Abreveacute">
          848 2046 rmoveto
          -158 hlineto
          -164 -208 rlineto
          139 hlineto
          180 hmoveto
          38 callsubr
          -118 hlineto
          11 callsubr
          -555 -1278 -103 callgsubr
        </CharString>
        <CharString name="Abrevedotbelow">
          845 5 callsubr
          -330 -2128 -35 callgsubr
        </CharString>
        <CharString name="Abrevegrave">
          110 callgsubr
          244 hmoveto
          38 callsubr
          -118 hlineto
          11 callsubr
          -555 -1278 -103 callgsubr
        </CharString>
        <CharString name="Abrevehookabove">
          658 51 callsubr
          262 10 rmoveto
          38 callsubr
          -118 hlineto
          11 callsubr
          -555 -1278 -103 callgsubr
        </CharString>
        <CharString name="Abrevetilde">
          861 2042 rmoveto
          60 callsubr
          110 81 83 114 hvcurveto
          -663 -245 70 callsubr
          -13 -1237 -103 callgsubr
        </CharString>
        <CharString name="Acaron">
          695 1617 rmoveto
          289 297 97 callsubr
          -190 -202 rlineto
          -12 hlineto
          -190 202 97 callsubr
          289 -297 rlineto
          -163 -1057 -103 callgsubr
        </CharString>
        <CharString name="Acircumflex">
          64 callsubr
          -29 -1057 -103 callgsubr
        </CharString>
        <CharString name="Acircumflexacute">
          1215 2046 rmoveto
          -168 hlineto
          -224 -217 rlineto
          149 hlineto
          -345 -106 rmoveto
          12 hlineto
          180 -146 rlineto
          172 hlineto
          -285 224 rlineto
          -146 hlineto
          -285 -224 rlineto
          172 hlineto
          -39 -1017 rmoveto
          224 704 rlineto
          2 hlineto
          224 -704 rlineto
          -292 883 rmoveto
          -476 -55 callgsubr
          rlineto
          140 hlineto
          141 442 rlineto
          524 hlineto
          141 -442 rlineto
          140 hlineto
          -476 25 callgsubr
          endchar
        </CharString>
        <CharString name="Acircumflexdotbelow">
          64 callsubr
          196 -1831 -35 callgsubr
        </CharString>
        <CharString name="Acircumflexgrave">
          1041 1829 6 callgsubr
          -265 -106 rmoveto
          12 hlineto
          180 -146 rlineto
          172 hlineto
          -285 224 rlineto
          -146 hlineto
          -285 -224 rlineto
          172 hlineto
          -39 -1017 -103 callgsubr
        </CharString>
        <CharString name="Acircumflexhookabove">
          923 51 callsubr
          -221 -105 rmoveto
          12 hlineto
          180 -146 rlineto
          172 hlineto
          -285 224 rlineto
          -146 hlineto
          -285 -224 rlineto
          172 hlineto
          -39 -1017 -103 callgsubr
        </CharString>
        <CharString name="Acircumflextilde">
          867 2072 rmoveto
          -78 -4 -35 -44 -57 -107 1 136 -169 hhcurveto
          -121 -81 -89 -133 hvcurveto
          106 hlineto
          80 3 33 42 59 107 -1 -137 169 hhcurveto
          119 83 92 131 hvcurveto
          -345 -349 rmoveto
          12 hlineto
          180 -146 rlineto
          172 hlineto
          -285 224 rlineto
          -146 hlineto
          -285 -224 rlineto
          172 hlineto
          -39 -1017 -103 callgsubr
        </CharString>
        <CharString name="Acyrillic">
          408 560 -103 callgsubr
        </CharString>
        <CharString name="Adblgrave">
          939 1617 rmoveto
          -310 297 rlineto
          -36 callsubr
          -206 hmoveto
          -310 297 rlineto
          -36 callsubr
          -9 -1057 -103 callgsubr
        </CharString>
        <CharString name="Adieresis">
          824 1666 rmoveto
          -107 callsubr
          -382 hmoveto
          -107 callsubr
          -34 -1106 -103 callgsubr
        </CharString>
        <CharString name="Adieresismacron">
          145 callgsubr
          -229 -253 rmoveto
          60 callgsubr
          52 41 41 52 52 -41 41 -52 -52 -41 -41 -52 vhcurveto
          -364 hmoveto
          60 callgsubr
          52 41 41 52 52 -41 41 -52 -52 -41 -41 -52 vhcurveto
          49 -1101 -103 callgsubr
        </CharString>
        <CharString name="Adotaccent">
          37 callsubr
          -225 -1100 -103 callgsubr
        </CharString>
        <CharString name="Adotbelow">
          633 -214 -35 callgsubr
        </CharString>
        <CharString name="Adotmacron">
          145 callgsubr
          -423 -232 rmoveto
          -58 46 -46 58 144 callgsubr
          vhcurveto
          -121 -1122 -103 callgsubr
        </CharString>
        <CharString name="Agrave">
          737 1617 rmoveto
          -310 297 rlineto
          -36 callsubr
          -171 -1057 -103 callgsubr
        </CharString>
        <CharString name="Ahookabove">
          640 1576 rmoveto
          92 33 62 77 80 vvcurveto
          101 -77 63 -121 -44 -52 -10 -14 -30 vhcurveto
          -98 vlineto
          14 25 42 9 43 hhcurveto
          61 40 -30 -44 -42 -41 -43 -59 -20 hvcurveto
          -173 -1092 -103 callgsubr
        </CharString>
        <CharString name="Ainvertedbreve">
          963 1617 rmoveto
          175 -136 122 -194 -194 -136 -122 -175 vhcurveto
          118 hlineto
          115 89 84 123 123 89 -84 -115 vhcurveto
          -437 -1057 -103 callgsubr
        </CharString>
        <CharString name="Alphagreek">
          408 560 -103 callgsubr
        </CharString>
        <CharString name="Alphatonosgreek">
          376 80 callgsubr
          -152 hlineto
          -88 -327 rlineto
          116 hlineto
          225 -556 rmoveto
          185 680 rlineto
          2 hlineto
          185 -680 rlineto
          152 -560 rmoveto
          141 hlineto
          -412 -50 callsubr
          -411 -55 callgsubr
          rlineto
          140 hlineto
          120 442 rlineto
          436 hlineto
          endchar
        </CharString>
        <CharString name="Amacron">
          952 1832 63 callsubr
          -544 -1154 -103 callgsubr
        </CharString>
        <CharString name="Aogonek">
          408 560 -44 callsubr
          136 -425 rlineto
          -123 -67 -51 -72 -102 vvcurveto
          -115 87 -77 129 37 42 6 8 24 vhcurveto
          104 vlineto
          -4 -19 -26 -3 -22 hhcurveto
          -72 -51 45 63 81 58 62 123 50 hvcurveto
          endchar
        </CharString>
        <CharString name="Aring">
          633 1858 46 callgsubr
          -1004 -103 callgsubr
        </CharString>
        <CharString name="Aringacute">
          845 2137 rmoveto
          -147 hlineto
          -124 -169 rlineto
          126 hlineto
          -67 -142 46 callgsubr
          -972 -103 callgsubr
        </CharString>
        <CharString name="Aringbelow">
          633 -478 rmoveto
          -71 -53 56 75 75 53 56 71 71 53 -56 -75 -75 -53 -56 -71 hvcurveto
          357 vmoveto
          -122 -99 -101 -125 -125 99 -101 122 122 99 101 125 125 -99 101 -122 hvcurveto
          -225 681 -44 callsubr
          141 -442 rlineto
          endchar
        </CharString>
        <CharString name="Atilde">
          877 1887 rmoveto
          -98 -4 -37 -56 -61 -93 -31 166 -163 hhcurveto
          -125 -79 -99 -157 hvcurveto
          106 hlineto
          101 3 35 53 63 107 25 -165 155 hhcurveto
          123 81 101 154 hvcurveto
          -574 -1327 -103 callgsubr
        </CharString>
        <CharString name="B">
          -91 callgsubr
          endchar
        </CharString>
        <CharString name="Bdotaccent">
          -91 callgsubr
          -45 1539 rmoveto
          -20 callsubr
        </CharString>
        <CharString name="Bdotbelow">
          -91 callgsubr
          -45 -561 rmoveto
          -20 callsubr
        </CharString>
        <CharString name="Becyrillic">
          327 728 rmoveto
          330 hlineto
          220 132 -113 -190 -190 -131 -111 -221 hvcurveto
          -330 hlineto
          728 vmoveto
          467 688 124 -825 -55 callgsubr
          499 vlineto
          273 187 172 253 254 -188 173 -273 hvcurveto
          endchar
        </CharString>
        <CharString name="Betagreek">
          -91 callgsubr
          endchar
        </CharString>
        <CharString name="Blinebelow">
          -91 callgsubr
          274 -507 -73 callgsubr
        </CharString>
        <CharString name="C">
          666 97 rmoveto
          -20 callgsubr
          hvcurveto
          239 vlineto
          -93 callgsubr
          endchar
        </CharString>
        <CharString name="Cacute">
          666 97 rmoveto
          -20 callgsubr
          hvcurveto
          239 vlineto
          -93 callgsubr
          -107 1520 -82 callgsubr
          endchar
        </CharString>
        <CharString name="Ccaron">
          1017 -88 callgsubr
          -449 -776 rmoveto
          -93 callgsubr
          -20 callgsubr
          hvcurveto
          endchar
        </CharString>
        <CharString name="Ccedilla">
          279 841 -64 callsubr
        </CharString>
        <CharString name="Ccedillaacute">
          1043 12 callsubr
          -438 -776 -64 callsubr
        </CharString>
        <CharString name="Ccircumflex">
          666 97 rmoveto
          -20 callgsubr
          hvcurveto
          239 vlineto
          -93 callgsubr
          62 1817 -63 callgsubr
        </CharString>
        <CharString name="Cdotaccent">
          666 97 rmoveto
          -20 callgsubr
          hvcurveto
          239 vlineto
          -93 callgsubr
          1563 -24 callgsubr
        </CharString>
        <CharString name="Checyrillic">
          1106 80 callgsubr
          -136 -638 hlineto
          -23 callsubr
          -662 161 callsubr
        </CharString>
        <CharString name="Chigreek">
          -54 callgsubr
          endchar
        </CharString>
        <CharString name="D">
          -67 callsubr
          endchar
        </CharString>
        <CharString name="Dcaron">
          936 -88 callgsubr
          -336 -298 rmoveto
          238 hlineto
          327 156 -193 -405 -405 -156 -192 -327 hvcurveto
          -238 hlineto
          -137 1319 rmoveto
          -55 callgsubr
          99 callgsubr
        </CharString>
        <CharString name="Dcircumflexbelow">
          -67 callsubr
          190 -293 -102 callgsubr
          endchar
        </CharString>
        <CharString name="Dcommaaccent">
          -67 callsubr
          228 -627 -41 callsubr
        </CharString>
        <CharString name="Dcroat">
          311 124 rmoveto
          557 283 124 -283 514 85 callsubr
          -638 -152 -124 152 -681 99 callgsubr
        </CharString>
        <CharString name="Ddotaccent">
          -67 callsubr
          274 1536 rmoveto
          -20 callsubr
        </CharString>
        <CharString name="Ddotbelow">
          -67 callsubr
          274 -564 rmoveto
          -20 callsubr
        </CharString>
        <CharString name="Decyrillic">
          1120 hmoveto
          -285 127 409 -168 1319 -774 vlineto
          -51 -935 -12 -216 -44 -119 -86 -49 rlinecurve
          -93 -409 128 285 hlineto
          281 1319 rmoveto
          515 -1195 -658 10 hlineto
          59 71 28 104 11 194 rrcurveto
          endchar
        </CharString>
        <CharString name="Deltagreek">
          102 hmoveto
          1062 97 hlineto
          -464 1346 143 callgsubr
          -464 -1346 rlineto
          151 27 rmoveto
          12 vlineto
          379 1127 rlineto
          2 hlineto
          379 -1127 rlineto
          -12 vlineto
          endchar
        </CharString>
        <CharString name="Djecyrillic">
          786 1 rmoveto
          -9 20 43 -6 42 hhcurveto
          156 callsubr
          -157 181 -242 -147 -99 -55 -62 -62 hvcurveto
          -12 547 403 123 -942 -123 403 -1320 136 618 hlineto
          77 60 108 71 139 hhcurveto
          167 108 118 callgsubr
          endchar
        </CharString>
        <CharString name="Dlinebelow">
          -67 callsubr
          593 -510 -73 callgsubr
        </CharString>
        <CharString name="Dzecyrillic">
          155 375 -102 callsubr
          endchar
        </CharString>
        <CharString name="Dzhecyrillic">
          569 -285 rmoveto
          128 285 442 -39 callgsubr
          -136 -1319 -740 1319 -136 -55 callgsubr
          442 hlineto
          endchar
        </CharString>
        <CharString name="E">
          1072 124 -44 callgsubr
        </CharString>
        <CharString name="Eacute">
          1072 124 -97 callsubr
          -522 -16 callsubr
          endchar
        </CharString>
        <CharString name="Ebreve">
          1072 124 -97 callsubr
          -745 1914 -43 callgsubr
        </CharString>
        <CharString name="Ecaron">
          1008 -88 callgsubr
          353 -1493 -44 callgsubr
        </CharString>
        <CharString name="Ecedilla">
          1072 1319 rmoveto
          124 -830 -55 callgsubr
          369 vlineto
          -64 -164 rlineto
          -71 57 vlineto
          47 callgsubr
          344 124 -693 554 656 122 -656 519 hlineto
          endchar
        </CharString>
        <CharString name="Ecedillabreve">
          869 5 callsubr
          85 -595 rmoveto
          124 -830 -55 callgsubr
          369 vlineto
          -64 -164 rlineto
          -71 57 vlineto
          47 callgsubr
          344 124 -693 554 656 122 -656 519 hlineto
          endchar
        </CharString>
        <CharString name="Ecircumflex">
          1072 124 -97 callsubr
          -353 1914 -63 callgsubr
        </CharString>
        <CharString name="Ecircumflexacute">
          1072 124 -97 callsubr
          -225 1829 rmoveto
          149 hlineto
          243 217 rlineto
          -168 hlineto
          -341 -245 -66 callgsubr
          endchar
        </CharString>
        <CharString name="Ecircumflexbelow">
          1072 124 -97 callsubr
          -499 -169 -102 callgsubr
          endchar
        </CharString>
        <CharString name="Ecircumflexdotbelow">
          1072 124 -97 callsubr
          -353 1914 -77 callgsubr
          -351 -2037 rmoveto
          -20 callsubr
        </CharString>
        <CharString name="Ecircumflexgrave">
          1072 124 -97 callsubr
          -7 1829 6 callgsubr
          -186 -28 -66 callgsubr
          endchar
        </CharString>
        <CharString name="Ecircumflexhookabove">
          1072 124 -97 callsubr
          -300 1975 -30 callgsubr
        </CharString>
        <CharString name="Ecircumflextilde">
          1072 124 -97 callsubr
          -342 1801 -66 callgsubr
          -221 272 -79 callsubr
          endchar
        </CharString>
        <CharString name="Ecyrillic">
          279 677 rmoveto
          552 124 -552 40 hlineto
          -93 callgsubr
          -20 callgsubr
          hvcurveto
          endchar
        </CharString>
        <CharString name="Edblgrave">
          653 1914 -58 callgsubr
          -674 297 -58 callgsubr
          473 -1493 -44 callgsubr
        </CharString>
        <CharString name="Edieresis">
          1072 124 -97 callsubr
          -606 1666 -105 callsubr
        </CharString>
        <CharString name="Edotaccent">
          1072 124 -97 callsubr
          -415 49 callgsubr
          endchar
        </CharString>
        <CharString name="Edotbelow">
          1072 124 -97 callsubr
          -415 -420 rmoveto
          -20 callsubr
        </CharString>
        <CharString name="Efcyrillic">
          565 -17 rmoveto
          136 154 hlineto
          340 6 214 227 355 vvcurveto
          353 -214 227 -340 8 vhcurveto
          147 -136 -147 vlineto
          -340 -8 -214 -227 -353 vvcurveto
          -355 214 -227 340 -6 vhcurveto
          -416 588 rmoveto
          279 161 179 256 7 vhcurveto
          -930 vlineto
          -256 6 -161 180 279 vvcurveto
          551 465 rmoveto
          256 -7 161 -179 -279 vvcurveto
          -279 -161 -180 -256 -6 vhcurveto
          endchar
        </CharString>
        <CharString name="Egrave">
          451 1914 -58 callgsubr
          311 -1493 -44 callgsubr
        </CharString>
        <CharString name="Ehookabove">
          1072 124 -97 callsubr
          -578 1808 48 callgsubr
        </CharString>
        <CharString name="Einvertedbreve">
          445 -46 callgsubr
          745 -1493 -44 callgsubr
        </CharString>
        <CharString name="Elcyrillic">
          1111 80 callgsubr
          -799 hlineto
          -40 callgsubr
          539 -1319 161 callsubr
        </CharString>
        <CharString name="Emacron">
          1072 124 -97 callsubr
          -96 84 callgsubr
          endchar
        </CharString>
        <CharString name="Emacronacute">
          679 1828 32 callsubr
          735 -1492 -44 callgsubr
        </CharString>
        <CharString name="Emacrongrave">
          1072 124 -97 callsubr
          -97 77 callsubr
        </CharString>
        <CharString name="Emcyrillic">
          232 hmoveto
          -57 callsubr
        </CharString>
        <CharString name="Encyrillic">
          1100 hmoveto
          -39 callgsubr
          -51 callgsubr
          vlineto
          endchar
        </CharString>
        <CharString name="Eogonek">
          908 hmoveto
          -12 vlineto
          -98 -58 -48 -69 -85 84 callsubr
          35 33 5 9 26 vhcurveto
          104 vlineto
          -4 -17 -26 -3 -24 hhcurveto
          -71 -53 48 64 79 50 67 117 50 hvcurveto
          14 6 rlineto
          115 -693 554 656 122 -656 519 693 124 -830 -55 callgsubr
          vlineto
          endchar
        </CharString>
        <CharString name="Epsilongreek">
          1072 124 -44 callgsubr
        </CharString>
        <CharString name="Epsilontonosgreek">
          1095 124 rmoveto
          -513 554 476 122 -476 519 513 124 -650 -55 callgsubr
          650 hlineto
          -1023 1116 1 callsubr
        </CharString>
        <CharString name="Ercyrillic">
          -57 callgsubr
          endchar
        </CharString>
        <CharString name="Ereversedcyrillic">
          225 1002 -86 callsubr
        </CharString>
        <CharString name="Escyrillic">
          666 97 rmoveto
          -20 callgsubr
          hvcurveto
          239 vlineto
          -93 callgsubr
          endchar
        </CharString>
        <CharString name="Etagreek">
          1100 hmoveto
          -39 callgsubr
          -51 callgsubr
          vlineto
          endchar
        </CharString>
        <CharString name="Etatonosgreek">
          1158 hmoveto
          -39 callgsubr
          -128 -642 -482 642 -128 -55 callgsubr
          128 678 482 -678 vlineto
          -982 1116 1 callsubr
        </CharString>
        <CharString name="Eth">
          311 124 rmoveto
          554 271 124 -271 517 85 callsubr
          -641 -139 -124 139 -678 99 callgsubr
        </CharString>
        <CharString name="Etilde">
          1072 124 -97 callsubr
          -270 31 callsubr
          endchar
        </CharString>
        <CharString name="Etildebelow">
          1072 124 -97 callsubr
          -561 -282 -101 callgsubr
        </CharString>
        <CharString name="Euro">
          1188 -14 rmoveto
          125 vlineto
          -5 -37 -43 -2 -48 hhcurveto
          -316 -198 140 271 -69 hvcurveto
          557 106 -577 hlineto
          -3 36 -2 33 32 vvcurveto
          31 2 32 3 36 vhcurveto
          577 105 -556 hlineto
          273 67 197 140 318 hhcurveto
          64 34 -2 -4 26 hvcurveto
          125 vlineto
          5 -33 -51 3 -40 hhcurveto
          -406 -251 -186 -354 -71 hvcurveto
          -233 -105 217 hlineto
          -3 -29 -1 -32 -38 vvcurveto
          -42 2 -32 3 -27 vhcurveto
          -218 -106 233 hlineto
          -352 72 250 -185 406 hhcurveto
          41 53 3 5 34 hvcurveto
          endchar
        </CharString>
        <CharString name="F">
          38 callgsubr
          endchar
        </CharString>
        <CharString name="Fdotaccent">
          38 callgsubr
          365 49 callgsubr
          endchar
        </CharString>
        <CharString name="G">
          1004 428 -95 callgsubr
          endchar
        </CharString>
        <CharString name="Gacute">
          1004 428 -95 callgsubr
          -453 1020 -82 callgsubr
          endchar
        </CharString>
        <CharString name="Gammagreek">
          268 hmoveto
          137 1319 692 124 -829 hlineto
          endchar
        </CharString>
        <CharString name="Gbreve">
          1004 428 -95 callgsubr
          -686 1317 -43 callgsubr
        </CharString>
        <CharString name="Gcaron">
          999 -88 callgsubr
          294 -1189 -95 callgsubr
          endchar
        </CharString>
        <CharString name="Gcircumflex">
          1004 428 -95 callgsubr
          -294 1317 -63 callgsubr
        </CharString>
        <CharString name="Gcommaaccent">
          1004 428 -95 callgsubr
          -392 -1100 -41 callsubr
        </CharString>
        <CharString name="Gdotaccent">
          1004 428 -95 callgsubr
          -356 1063 rmoveto
          -20 callsubr
        </CharString>
        <CharString name="Gecyrillic">
          1230 1443 61 callgsubr
        </CharString>
        <CharString name="Geupturncyrillic">
          1102 1716 rmoveto
          -273 -1010 -124 259 -1195 -259 -124 687 124 -289 1194 612 -278 128 676 vlineto
          endchar
        </CharString>
        <CharString name="Gjecyrillic">
          1051 12 callsubr
          505 -174 61 callgsubr
        </CharString>
        <CharString name="Gmacron">
          1004 428 -95 callgsubr
          -37 1117 -73 callgsubr
        </CharString>
        <CharString name="H">
          1100 hmoveto
          -39 callgsubr
          -51 callgsubr
          vlineto
          endchar
        </CharString>
        <CharString name="Hardsigncyrillic">
          471 762 rmoveto
          293 hlineto
          196 118 -120 161 callgsubr
          -117 -118 -197 hvcurveto
          -293 hlineto
          761 vmoveto
          558 -443 -124 306 -1319 463 vlineto
          250 171 179 263 264 -172 179 -251 hvcurveto
          endchar
        </CharString>
        <CharString name="Hbar">
          303 801 rmoveto
          294 660 -294 vlineto
          -660 -124 rmoveto
          660 -677 137 1095 125 111 -125 237 -137 -237 -660 237 -137 -237 -125 -111 125 -1095 137 hlineto
          endchar
        </CharString>
        <CharString name="Hbrevebelow">
          1100 hmoveto
          -39 callgsubr
          -51 callgsubr
          vlineto
          -330 -363 -82 callsubr
        </CharString>
        <CharString name="Hcaron">
          984 -88 callgsubr
          405 143 callsubr
          -39 callgsubr
          -51 callgsubr
          vlineto
          endchar
        </CharString>
        <CharString name="Hcedilla">
          963 80 callgsubr
          -642 -660 642 -137 -55 callgsubr
          20 vlineto
          -64 -164 rlineto
          -71 57 vlineto
          47 callgsubr
          677 660 -677 137 -39 callgsubr
          vlineto
          endchar
        </CharString>
        <CharString name="Hcircumflex">
          1100 hmoveto
          -39 callgsubr
          -51 callgsubr
          vlineto
          -268 1914 -63 callgsubr
        </CharString>
        <CharString name="Hdieresis">
          1100 hmoveto
          -39 callgsubr
          -51 callgsubr
          vlineto
          -521 1666 -105 callsubr
        </CharString>
        <CharString name="Hdotaccent">
          1100 hmoveto
          -39 callgsubr
          -51 callgsubr
          vlineto
          -330 49 callgsubr
          endchar
        </CharString>
        <CharString name="Hdotbelow">
          1100 hmoveto
          -39 callgsubr
          -51 callgsubr
          vlineto
          -330 -13 callsubr
          endchar
        </CharString>
        <CharString name="I">
          991 hmoveto
          2 callgsubr
        </CharString>
        <CharString name="IAcyrillic">
          1003 579 -64 callgsubr
        </CharString>
        <CharString name="IJ">
          382 hmoveto
          14 callsubr
        </CharString>
        <CharString name="IJacute">
          251 -16 callsubr
          307 131 callgsubr
          -796 -1914 rmoveto
          14 callsubr
        </CharString>
        <CharString name="IUcyrillic">
          790 1346 -75 callsubr
        </CharString>
        <CharString name="Iacute">
          991 hmoveto
          -92 callgsubr
          251 -16 callsubr
          endchar
        </CharString>
        <CharString name="Ibreve">
          991 hmoveto
          -92 callgsubr
          28 1914 -43 callgsubr
        </CharString>
        <CharString name="Icaron">
          984 -88 callgsubr
          296 -8 callgsubr
        </CharString>
        <CharString name="Icircumflex">
          991 hmoveto
          -92 callgsubr
          420 1914 -63 callgsubr
        </CharString>
        <CharString name="Icyrillic">
          991 hmoveto
          2 callgsubr
        </CharString>
        <CharString name="Idblgrave">
          629 1914 -58 callgsubr
          -674 297 -58 callgsubr
          416 -8 callgsubr
        </CharString>
        <CharString name="Idieresis">
          991 hmoveto
          -92 callgsubr
          167 1666 -105 callsubr
        </CharString>
        <CharString name="Idieresisacute">
          991 hmoveto
          -92 callgsubr
          235 1829 rmoveto
          149 hlineto
          243 217 rlineto
          -168 hlineto
          -282 -478 rmoveto
          -71 callgsubr
          364 hmoveto
          -71 callgsubr
          endchar
        </CharString>
        <CharString name="Idotaccent">
          991 hmoveto
          -92 callgsubr
          358 49 callgsubr
          endchar
        </CharString>
        <CharString name="Idotbelow">
          991 hmoveto
          -92 callgsubr
          357 -13 callsubr
          endchar
        </CharString>
        <CharString name="Iecyrillic">
          1072 124 -44 callgsubr
        </CharString>
        <CharString name="Igrave">
          427 1914 -58 callgsubr
          254 -8 callgsubr
        </CharString>
        <CharString name="Ihookabove">
          991 hmoveto
          -92 callgsubr
          195 1808 48 callgsubr
        </CharString>
        <CharString name="Iicyrillic">
          162 1443 -47 callgsubr
        </CharString>
        <CharString name="Iinvertedbreve">
          421 -46 callgsubr
          688 -8 callgsubr
        </CharString>
        <CharString name="Iishortcyrillic">
          -1 callsubr
          -275 -471 -47 callgsubr
        </CharString>
        <CharString name="Imacron">
          991 hmoveto
          -92 callgsubr
          677 84 callgsubr
          endchar
        </CharString>
        <CharString name="Iocyrillic">
          1072 124 -97 callsubr
          -606 1666 -105 callsubr
        </CharString>
        <CharString name="Iogonek">
          991 1325 rmoveto
          118 -716 -118 290 -1207 -290 -118 569 vlineto
          -97 -58 -53 -83 -93 vvcurveto
          -110 80 -72 123 35 33 5 9 26 vhcurveto
          104 vlineto
          -4 -14 -27 -3 -17 hhcurveto
          -66 -44 39 59 75 51 64 112 65 hvcurveto
          5 3 rlineto
          118 -290 1207 vlineto
          endchar
        </CharString>
        <CharString name="Iotadieresisgreek">
          991 hmoveto
          -92 callgsubr
          167 1666 -105 callsubr
        </CharString>
        <CharString name="Iotagreek">
          991 hmoveto
          2 callgsubr
        </CharString>
        <CharString name="Iotatonosgreek">
          1184 hmoveto
          -92 callgsubr
          -353 1116 1 callsubr
        </CharString>
        <CharString name="Iotatonosgreek.1">
          837 52 callgsubr
          -523 1116 1 callsubr
        </CharString>
        <CharString name="Itilde">
          991 hmoveto
          -92 callgsubr
          503 31 callsubr
          endchar
        </CharString>
        <CharString name="Itildebelow">
          991 hmoveto
          -92 callgsubr
          211 -302 -101 callgsubr
        </CharString>
        <CharString name="J">
          -16 callgsubr
          endchar
        </CharString>
        <CharString name="Jcircumflex">
          -16 callgsubr
          160 1944 -63 callgsubr
        </CharString>
        <CharString name="Jecyrillic">
          -16 callgsubr
          endchar
        </CharString>
        <CharString name="K">
          375 hmoveto
          -65 callgsubr
          endchar
        </CharString>
        <CharString name="Kacute">
          375 hmoveto
          -65 callgsubr
          313 -16 callsubr
          endchar
        </CharString>
        <CharString name="Kacyrillic">
          305 80 callgsubr
          78 callsubr
          183 hlineto
          -746 746 89 callgsubr
          hlineto
          endchar
        </CharString>
        <CharString name="Kappagreek">
          375 hmoveto
          -65 callgsubr
          endchar
        </CharString>
        <CharString name="Kcaron">
          1009 -88 callgsubr
          -345 143 callsubr
          -65 callgsubr
          endchar
        </CharString>
        <CharString name="Kcommaaccent">
          375 hmoveto
          -65 callgsubr
          400 -503 -41 callsubr
        </CharString>
        <CharString name="Kdotbelow">
          375 hmoveto
          -65 callgsubr
          446 -13 callsubr
          endchar
        </CharString>
        <CharString name="Kjecyrillic">
          530 -16 callsubr
          -535 -471 rmoveto
          78 callsubr
          183 hlineto
          -746 746 89 callgsubr
          hlineto
          endchar
        </CharString>
        <CharString name="Klinebelow">
          375 hmoveto
          -65 callgsubr
          765 -386 -73 callgsubr
        </CharString>
        <CharString name="L">
          -19 callsubr
          endchar
        </CharString>
        <CharString name="Lacute">
          -19 callsubr
          -877 -16 callsubr
          endchar
        </CharString>
        <CharString name="Lambdagreek">
          110 hmoveto
          140 hlineto
          382 1264 rlineto
          2 hlineto
          382 -1264 rlineto
          140 hlineto
          -456 -50 callsubr
          endchar
        </CharString>
        <CharString name="Lcaron">
          780 80 callgsubr
          -473 94 vlineto
          36 473 rlineto
          204 -1319 rmoveto
          -703 1319 -136 -55 callgsubr
          839 hlineto
          endchar
        </CharString>
        <CharString name="Lcircumflexbelow">
          -19 callsubr
          -503 -169 -102 callgsubr
          endchar
        </CharString>
        <CharString name="Lcommaaccent">
          -19 callsubr
          -465 -503 -41 callsubr
        </CharString>
        <CharString name="Ldot">
          -19 callsubr
          -143 883 rmoveto
          -20 callsubr
        </CharString>
        <CharString name="Ldotbelow">
          -19 callsubr
          -419 -13 callsubr
          endchar
        </CharString>
        <CharString name="Ldotbelowmacron">
          -19 callsubr
          -419 -13 callsubr
          -32 2154 -73 callgsubr
        </CharString>
        <CharString name="Ljecyrillic">
          749 761 rmoveto
          125 hlineto
          158 94 -118 -201 -201 -94 -118 -158 hvcurveto
          -125 hlineto
          -385 1196 rmoveto
          248 -1319 295 hlineto
          213 146 180 262 262 -146 180 -213 hvcurveto
          -158 559 -510 hlineto
          -38 -926 rlineto
          -290 -12 -40 -110 -95 hhcurveto
          -20 -21 3 4 -13 hvcurveto
          -123 vlineto
          -7 18 23 -3 28 hhcurveto
          166 78 155 364 16 hvcurveto
          endchar
        </CharString>
        <CharString name="Llinebelow">
          -19 callsubr
          -100 -386 -73 callgsubr
        </CharString>
        <CharString name="Lslash">
          411 124 rmoveto
          556 vlineto
          495 284 rlineto
          128 vlineto
          -495 -290 rlineto
          641 -136 -720 vlineto
          -189 -111 rlineto
          -118 vlineto
          189 108 rlineto
          -602 839 124 vlineto
          endchar
        </CharString>
        <CharString name="M">
          232 hmoveto
          -57 callsubr
        </CharString>
        <CharString name="Macute">
          526 -16 callsubr
          -604 -1914 rmoveto
          -57 callsubr
        </CharString>
        <CharString name="Mdotaccent">
          37 callsubr
          -401 -1660 rmoveto
          -57 callsubr
        </CharString>
        <CharString name="Mdotbelow">
          -4 callgsubr
          -401 440 rmoveto
          -57 callsubr
        </CharString>
        <CharString name="Mugreek">
          232 hmoveto
          -57 callsubr
        </CharString>
        <CharString name="N">
          290 hmoveto
          53 callsubr
        </CharString>
        <CharString name="Nacute">
          290 hmoveto
          -74 callsubr
          360 -16 callsubr
          endchar
        </CharString>
        <CharString name="Ncaron">
          980 -88 callgsubr
          -401 45 callgsubr
        </CharString>
        <CharString name="Ncircumflexbelow">
          290 hmoveto
          -74 callsubr
          385 -169 -102 callgsubr
          endchar
        </CharString>
        <CharString name="Ncommaaccent">
          290 hmoveto
          -74 callsubr
          423 -503 -41 callsubr
        </CharString>
        <CharString name="Ndotaccent">
          290 hmoveto
          -74 callsubr
          467 49 callgsubr
          endchar
        </CharString>
        <CharString name="Ndotbelow">
          290 hmoveto
          -74 callsubr
          469 -13 callsubr
          endchar
        </CharString>
        <CharString name="Ngrave">
          423 1914 -58 callgsubr
          -443 45 callgsubr
        </CharString>
        <CharString name="Njecyrillic">
          739 677 rmoveto
          105 hlineto
          153 90 -100 -168 -180 -93 -112 -150 hvcurveto
          -105 hlineto
          -504 -117 rmoveto
          677 367 -677 273 vlineto
          209 142 165 244 231 -143 155 -213 hvcurveto
          -131 648 -137 -648 -367 648 -130 101 callsubr
          endchar
        </CharString>
        <CharString name="Nlinebelow">
          290 hmoveto
          -74 callsubr
          788 -386 -73 callgsubr
        </CharString>
        <CharString name="Ntilde">
          290 hmoveto
          -74 callsubr
          612 31 callsubr
          endchar
        </CharString>
        <CharString name="Nugreek">
          290 hmoveto
          53 callsubr
        </CharString>
        <CharString name="NumberSignCyrillic">
          198 hmoveto
          1159 18 vlineto
          336 123 callgsubr
          -333 1158 rlineto
          -159 101 callsubr
          958 1112 rmoveto
          95 76 77 95 95 -76 77 -95 -95 -76 -77 -95 -95 76 -77 95 hvcurveto
          167 -269 rmoveto
          124 -336 -124 vlineto
          endchar
        </CharString>
        <CharString name="O">
          -106 callsubr
          endchar
        </CharString>
        <CharString name="OE">
          155 832 rmoveto
          380 74 159 178 174 82 -183 -387 vhcurveto
          -158 vlineto
          -387 -82 -183 -174 -178 -74 159 380 vhcurveto
          518 -407 rmoveto
          15 -205 567 115 -451 566 417 119 -417 527 451 116 -567 -205 -15 hlineto
          159 -41 -97 80 -151 hhcurveto
          -248 -121 -211 -433 hvcurveto
          -222 vlineto
          -433 121 -211 248 152 98 81 157 39 vhcurveto
          endchar
        </CharString>
        <CharString name="Oacute">
          -106 callsubr
          -107 1520 -82 callgsubr
          endchar
        </CharString>
        <CharString name="Obreve">
          -106 callsubr
          -330 1817 -43 callgsubr
        </CharString>
        <CharString name="Ocaron">
          984 -88 callgsubr
          -444 -776 -94 callsubr
        </CharString>
        <CharString name="Ocircumflex">
          -106 callsubr
          62 1817 -63 callgsubr
        </CharString>
        <CharString name="Ocircumflexacute">
          -106 callsubr
          190 1732 rmoveto
          149 hlineto
          243 217 rlineto
          -168 hlineto
          -341 -245 -66 callgsubr
          endchar
        </CharString>
        <CharString name="Ocircumflexdotbelow">
          -106 callsubr
          62 1817 -77 callgsubr
          -351 -2057 rmoveto
          -20 callsubr
        </CharString>
        <CharString name="Ocircumflexgrave">
          -106 callsubr
          408 1732 6 callgsubr
          -186 -28 -66 callgsubr
          endchar
        </CharString>
        <CharString name="Ocircumflexhookabove">
          -106 callsubr
          115 1878 -30 callgsubr
        </CharString>
        <CharString name="Ocircumflextilde">
          -106 callsubr
          73 1704 -66 callgsubr
          -221 272 -79 callsubr
          endchar
        </CharString>
        <CharString name="Ocyrillic">
          -106 callsubr
          endchar
        </CharString>
        <CharString name="Odblgrave">
          629 1914 -58 callgsubr
          -674 297 -58 callgsubr
          -324 -776 -94 callsubr
        </CharString>
        <CharString name="Odieresis">
          -106 callsubr
          -191 1569 -105 callsubr
        </CharString>
        <CharString name="Odieresismacron">
          815 1754 -37 callgsubr
          -200 -913 -94 callsubr
        </CharString>
        <CharString name="Odotaccent">
          -106 callsubr
          1563 -24 callgsubr
        </CharString>
        <CharString name="Odotaccentmacron">
          59 callgsubr
          -63 -1171 -94 callsubr
        </CharString>
        <CharString name="Odotbelow">
          -106 callsubr
          -537 -24 callgsubr
        </CharString>
        <CharString name="Ograve">
          427 1914 -58 callgsubr
          -486 -776 -94 callsubr
        </CharString>
        <CharString name="Ohookabove">
          -106 callsubr
          -163 1711 48 callgsubr
        </CharString>
        <CharString name="Ohorn">
          633 -30 -77 callsubr
        </CharString>
        <CharString name="Ohornacute">
          450 -16 callsubr
          -127 -1944 -77 callsubr
        </CharString>
        <CharString name="Ohorndotbelow">
          633 -30 -75 callgsubr
          -537 -24 callgsubr
        </CharString>
        <CharString name="Ohorngrave">
          251 841 rmoveto
          316 143 189 239 239 143 -189 -316 125 callgsubr
          -316 -143 -189 -239 -239 -143 189 316 vhcurveto
          901 239 rmoveto
          229 -71 183 -117 75 vhcurveto
          9 72 vlineto
          130 72 61 109 hvcurveto
          168 -122 -129 vlineto
          -81 -34 -26 -106 vhcurveto
          -138 -84 34 -121 hhcurveto
          -324 -195 -238 -394 75 callgsubr
          -394 195 -238 324 324 195 238 394 vhcurveto
          -686 1312 90 callsubr
        </CharString>
        <CharString name="Ohornhookabove">
          42 callgsubr
          163 -1936 -77 callsubr
        </CharString>
        <CharString name="Ohorntilde">
          27 callsubr
          -145 -1662 -77 callsubr
        </CharString>
        <CharString name="Ohungarumlaut">
          -106 callsubr
          30 1520 71 callgsubr
        </CharString>
        <CharString name="Oinvertedbreve">
          421 -46 callgsubr
          -52 -776 -94 callsubr
        </CharString>
        <CharString name="Omacron">
          -106 callsubr
          319 1617 -73 callgsubr
        </CharString>
        <CharString name="Omacronacute">
          655 1828 32 callsubr
          -62 -775 -94 callsubr
        </CharString>
        <CharString name="Omacrongrave">
          -106 callsubr
          318 1520 115 callsubr
          445 212 6 callgsubr
          endchar
        </CharString>
        <CharString name="Omegagreek">
          633 1473 rmoveto
          -366 -210 -250 -436 -304 123 -232 222 -115 hvcurveto
          -12 -356 -124 517 161 vlineto
          -248 127 -121 200 296 vvcurveto
          372 150 190 289 289 150 -190 -372 -296 -121 -200 -248 -127 vhcurveto
          -161 517 124 -356 12 vlineto
          222 115 123 232 304 vvcurveto
          436 -210 250 -366 vhcurveto
          endchar
        </CharString>
        <CharString name="Omegatonosgreek">
          721 1473 rmoveto
          -315 -181 -251 -435 -294 107 -236 188 -121 hvcurveto
          -12 -296 -124 437 161 vlineto
          -204 127 -95 194 302 vvcurveto
          374 122 188 237 237 122 -188 -374 -302 -95 -194 -204 -127 vhcurveto
          -161 437 124 -296 12 vlineto
          188 121 107 236 294 vvcurveto
          435 -181 251 -315 vhcurveto
          -709 -357 1 callsubr
        </CharString>
        <CharString name="Omicrongreek">
          -106 callsubr
          endchar
        </CharString>
        <CharString name="Omicrontonosgreek">
          1204 602 rmoveto
          239 vlineto
          401 -160 231 -279 -279 -160 -231 -401 125 callgsubr
          -401 160 -231 279 279 160 231 401 vhcurveto
          -439 -505 rmoveto
          -194 -108 181 324 117 callgsubr
          324 108 181 194 194 108 -181 -324 125 callgsubr
          -324 -108 -181 -194 vhcurveto
          -694 1019 1 callsubr
        </CharString>
        <CharString name="Oogonek">
          633 97 -33 callsubr
        </CharString>
        <CharString name="Oogonekmacron">
          952 84 callgsubr
          319 -1617 -33 callsubr
        </CharString>
        <CharString name="Oslash">
          1015 602 -34 callsubr
        </CharString>
        <CharString name="Oslashacute">
          1035 12 callsubr
          306 -1015 -34 callsubr
        </CharString>
        <CharString name="Otilde">
          -106 callsubr
          145 1535 -79 callgsubr
          endchar
        </CharString>
        <CharString name="Otildeacute">
          -106 callsubr
          -59 1777 rmoveto
          126 hlineto
          165 209 rlineto
          -147 hlineto
          52 -530 -79 callsubr
          endchar
        </CharString>
        <CharString name="Otildedieresis">
          -106 callsubr
          137 1456 -79 callsubr
          -319 322 rmoveto
          -71 callgsubr
          364 hmoveto
          -71 callgsubr
          endchar
        </CharString>
        <CharString name="Otildemacron">
          -106 callsubr
          319 1817 115 callsubr
          456 -361 -79 callsubr
          endchar
        </CharString>
        <CharString name="P">
          -57 callgsubr
          endchar
        </CharString>
        <CharString name="Pacute">
          -57 callgsubr
          125 950 -82 callgsubr
          endchar
        </CharString>
        <CharString name="Pdotaccent">
          -57 callgsubr
          232 993 rmoveto
          -20 callsubr
        </CharString>
        <CharString name="Pecyrillic">
          1119 80 callgsubr
          -972 -55 callgsubr
          137 1318 698 -1318 137 hlineto
          endchar
        </CharString>
        <CharString name="Phigreek">
          565 -58 rmoveto
          136 136 hlineto
          328 11 175 223 408 vvcurveto
          407 -175 223 -328 12 vhcurveto
          133 -136 -133 vlineto
          -328 -12 -175 -223 -407 vvcurveto
          -408 175 -223 328 -11 vhcurveto
          3 122 rmoveto
          -246 7 -123 171 342 vvcurveto
          341 123 172 246 8 vhcurveto
          130 -1041 rmoveto
          1041 vlineto
          246 -8 123 -172 -341 vvcurveto
          -342 -123 -171 -246 -7 vhcurveto
          endchar
        </CharString>
        <CharString name="Pigreek">
          175 hmoveto
          137 1319 642 -1319 137 -39 callgsubr
          -916 hlineto
          endchar
        </CharString>
        <CharString name="Psigreek">
          565 hmoveto
          136 345 hlineto
          325 151 177 382 hvcurveto
          539 -136 -535 vlineto
          -319 -88 -114 -252 -4 vhcurveto
          972 -136 -972 vlineto
          -252 4 -88 114 319 vvcurveto
          535 -136 -539 vlineto
          -382 150 -176 326 -1 vhcurveto
          endchar
        </CharString>
        <CharString name="Q">
          251 841 rmoveto
          320 146 185 236 236 146 -185 -320 125 callgsubr
          -166 -39 -130 -71 -86 vhcurveto
          -159 241 66 callsubr
          214 -325 rlineto
          -26 -49 -57 -13 -64 hhcurveto
          -236 -146 185 320 hvcurveto
          911 -771 rmoveto
          -180 272 rlineto
          109 108 61 170 221 vvcurveto
          -12 callgsubr
          -239 vlineto
          -398 198 -234 321 92 81 19 37 70 vhcurveto
          129 -195 rlineto
          endchar
        </CharString>
        <CharString name="R">
          -87 callsubr
          endchar
        </CharString>
        <CharString name="Racute">
          -87 callsubr
          177 1022 -82 callgsubr
          endchar
        </CharString>
        <CharString name="Rcaron">
          965 -88 callgsubr
          33 -34 callgsubr
        </CharString>
        <CharString name="Rcommaaccent">
          -87 callsubr
          261 -1098 -41 callsubr
        </CharString>
        <CharString name="Rdblgrave">
          610 1914 -58 callgsubr
          -674 297 -58 callgsubr
          153 -34 callgsubr
        </CharString>
        <CharString name="Rdotaccent">
          -87 callsubr
          284 1065 rmoveto
          -20 callsubr
        </CharString>
        <CharString name="Rdotbelow">
          -87 callsubr
          307 -1035 rmoveto
          -20 callsubr
        </CharString>
        <CharString name="Rdotbelowmacron">
          -87 callsubr
          307 -1035 rmoveto
          -104 callgsubr
          296 2154 -73 callgsubr
        </CharString>
        <CharString name="Rhogreek">
          -57 callgsubr
          endchar
        </CharString>
        <CharString name="Rinvertedbreve">
          402 -46 callgsubr
          425 -34 callgsubr
        </CharString>
        <CharString name="Rlinebelow">
          -87 callsubr
          626 -981 -73 callgsubr
        </CharString>
        <CharString name="S">
          155 375 -102 callsubr
          endchar
        </CharString>
        <CharString name="Sacute">
          155 375 -102 callsubr
          251 1242 -82 callgsubr
          endchar
        </CharString>
        <CharString name="Sacutedotaccent">
          155 375 -102 callsubr
          337 1242 -82 callgsubr
          -433 -197 rmoveto
          -20 callsubr
        </CharString>
        <CharString name="Scaron">
          1001 -88 callgsubr
          -557 -1242 -102 callsubr
          endchar
        </CharString>
        <CharString name="Scarondotaccent">
          155 375 -102 callsubr
          358 1474 rmoveto
          144 callgsubr
          -58 46 -46 58 hvcurveto
          73 -272 -5 callgsubr
          endchar
        </CharString>
        <CharString name="Scedilla">
          617 818 rmoveto
          -200 52 -86 80 135 vvcurveto
          165 119 98 200 181 118 -95 -163 20 vhcurveto
          137 hlineto
          232 -14 -180 151 -262 hhcurveto
          -278 -181 -153 -235 -207 119 -123 271 -71 hvcurveto
          113 -29 rlineto
          206 -53 91 -86 -138 vvcurveto
          -171 -135 -112 -206 -202 -137 107 173 -19 vhcurveto
          -137 hlineto
          16 -232 167 -151 255 -20 -53 -136 rcurveline
          -71 57 vlineto
          -95 callsubr
          44 116 rlineto
          256 22 165 156 228 vvcurveto
          216 -116 120 -281 73 vhcurveto
          endchar
        </CharString>
        <CharString name="Scircumflex">
          155 375 -102 callsubr
          420 1539 -63 callgsubr
        </CharString>
        <CharString name="Scommaaccent">
          155 375 -102 callsubr
          312 -878 -41 callsubr
        </CharString>
        <CharString name="Sdotaccent">
          155 375 -102 callsubr
          358 1285 rmoveto
          -20 callsubr
        </CharString>
        <CharString name="Sdotbelow">
          155 375 -102 callsubr
          358 -795 rmoveto
          -20 callsubr
        </CharString>
        <CharString name="Sdotbelowdotaccent">
          155 375 -102 callsubr
          358 -815 rmoveto
          -104 callgsubr
          2100 -24 callgsubr
        </CharString>
        <CharString name="Shacyrillic">
          1191 hmoveto
          -39 callgsubr
          -136 -1319 -354 1319 -136 -1319 -354 1319 91 callsubr
          endchar
        </CharString>
        <CharString name="Shchacyrillic">
          1140 -285 rmoveto
          126 409 -143 1319 -136 -1319 -332 1319 -136 -1319 -332 1319 -136 -55 callgsubr
          1089 hlineto
          endchar
        </CharString>
        <CharString name="Sigmagreek">
          138 hmoveto
          925 124 -755 12 hlineto
          366 587 rlineto
          25 vlineto
          -345 559 rlineto
          12 716 124 -889 -116 vlineto
          373 -597 -391 -628 rlineto
          endchar
        </CharString>
        <CharString name="Softsigncyrillic">
          326 761 rmoveto
          332 hlineto
          221 131 -119 -200 56 callsubr
          -119 -221 hvcurveto
          -332 hlineto
          365 -123 rmoveto
          274 184 177 265 265 -184 177 -274 hvcurveto
          -365 559 43 callgsubr
          endchar
        </CharString>
        <CharString name="T">
          -12 callsubr
          endchar
        </CharString>
        <CharString name="Taugreek">
          -12 callsubr
          endchar
        </CharString>
        <CharString name="Tbar">
          1145 1319 rmoveto
          124 -1024 -124 444 -531 -304 -110 304 -678 136 678 304 110 -304 531 vlineto
          endchar
        </CharString>
        <CharString name="Tcaron">
          984 -88 callgsubr
          6 143 callsubr
          -11 callsubr
          endchar
        </CharString>
        <CharString name="Tcedilla">
          1145 1319 rmoveto
          0 callsubr
          22 vlineto
          -64 -164 rlineto
          -71 57 vlineto
          47 callgsubr
          -3 1319 hlineto
          endchar
        </CharString>
        <CharString name="Tcircumflexbelow">
          -12 callsubr
          -16 -169 -102 callgsubr
          endchar
        </CharString>
        <CharString name="Tcommaaccent">
          -12 callsubr
          22 -503 -41 callsubr
        </CharString>
        <CharString name="Tdotaccent">
          -12 callsubr
          68 49 callgsubr
          endchar
        </CharString>
        <CharString name="Tdotbelow">
          -12 callsubr
          68 -13 callsubr
          endchar
        </CharString>
        <CharString name="Tecyrillic">
          -12 callsubr
          endchar
        </CharString>
        <CharString name="Thetagreek">
          633 97 rmoveto
          -245 -157 197 308 117 callgsubr
          308 157 197 245 245 157 -197 -308 125 callgsubr
          -308 -157 -197 -245 vhcurveto
          539 505 rmoveto
          239 vlineto
          387 -209 245 -330 -330 -209 -245 -387 125 callgsubr
          -387 209 -245 330 330 209 245 387 vhcurveto
          -809 60 rmoveto
          540 122 -540 hlineto
          endchar
        </CharString>
        <CharString name="Thorn">
          195 153 callgsubr
          136 369 386 vlineto
          239 153 164 235 233 -152 162 -242 hvcurveto
          -385 280 hlineto
          1 -403 rmoveto
          344 hlineto
          199 94 -91 -181 -182 -94 -93 -199 hvcurveto
          -344 hlineto
          endchar
        </CharString>
        <CharString name="Tlinebelow">
          -12 callsubr
          387 -386 -73 callgsubr
        </CharString>
        <CharString name="Tsecyrillic">
          1264 124 rmoveto
          -163 1319 -137 -1319 -717 1319 -137 -55 callgsubr
          1026 -285 128 hlineto
          endchar
        </CharString>
        <CharString name="Tshecyrillic">
          1075 hmoveto
          137 473 hlineto
          264 -135 153 -252 -147 -99 -55 -62 -62 vhcurveto
          -12 546 369 124 -874 -124 369 -1319 136 618 hlineto
          76 59 101 72 134 hhcurveto
          189 87 -116 -188 hvcurveto
          endchar
        </CharString>
        <CharString name="U">
          -100 callsubr
          endchar
        </CharString>
        <CharString name="Uacute">
          -100 callsubr
          -110 1521 -82 callgsubr
          endchar
        </CharString>
        <CharString name="Ubreve">
          -100 callsubr
          -333 1818 -43 callgsubr
        </CharString>
        <CharString name="Ucaron">
          981 -88 callgsubr
          -421 -174 -56 callsubr
        </CharString>
        <CharString name="Ucircumflex">
          -100 callsubr
          59 1818 -63 callgsubr
        </CharString>
        <CharString name="Ucircumflexbelow">
          -100 callsubr
          -87 -265 -102 callgsubr
          endchar
        </CharString>
        <CharString name="Ucyrillic">
          1188 1443 -73 callsubr
          endchar
        </CharString>
        <CharString name="Udblgrave">
          626 1914 -58 callgsubr
          -674 297 -58 callgsubr
          -301 -174 -56 callsubr
        </CharString>
        <CharString name="Udieresis">
          -100 callsubr
          -194 1570 -105 callsubr
        </CharString>
        <CharString name="Udieresisacute">
          -100 callsubr
          -126 1733 rmoveto
          149 hlineto
          243 217 rlineto
          -168 hlineto
          -282 -478 rmoveto
          -71 callgsubr
          364 hmoveto
          -71 callgsubr
          endchar
        </CharString>
        <CharString name="Udieresisbelow">
          -100 callsubr
          -194 -530 -105 callsubr
        </CharString>
        <CharString name="Udieresiscaron">
          -100 callsubr
          70 1736 -5 callgsubr
          -108 -264 rmoveto
          -71 callgsubr
          364 hmoveto
          -71 callgsubr
          endchar
        </CharString>
        <CharString name="Udieresisgrave">
          449 1568 rmoveto
          -71 callgsubr
          364 hmoveto
          -71 callgsubr
          -282 478 rmoveto
          -168 hlineto
          243 -217 rlineto
          149 hlineto
          -484 -386 -56 callsubr
        </CharString>
        <CharString name="Udieresismacron">
          813 1754 -37 callgsubr
          -178 -311 -56 callsubr
        </CharString>
        <CharString name="Udotbelow">
          -100 callsubr
          -3 -536 rmoveto
          -20 callsubr
        </CharString>
        <CharString name="Ugrave">
          424 1914 -58 callgsubr
          -463 -174 -56 callsubr
        </CharString>
        <CharString name="Uhookabove">
          -100 callsubr
          -166 1712 48 callgsubr
        </CharString>
        <CharString name="Uhorn">
          633 -30 rmoveto
          -66 callsubr
        </CharString>
        <CharString name="Uhornacute">
          501 -16 callsubr
          -178 -1944 rmoveto
          -66 callsubr
        </CharString>
        <CharString name="Uhorndotbelow">
          -4 callgsubr
          410 vmoveto
          -66 callsubr
        </CharString>
        <CharString name="Uhorngrave">
          1131 1343 rmoveto
          60 hlineto
          119 70 63 107 hvcurveto
          182 -122 -158 vlineto
          -64 -33 -30 -68 vhcurveto
          -162 -938 hlineto
          3 callgsubr
          938 -136 -947 vlineto
          -76 callsubr
          -686 1418 90 callsubr
        </CharString>
        <CharString name="Uhornhookabove">
          42 callgsubr
          163 -1936 rmoveto
          -66 callsubr
        </CharString>
        <CharString name="Uhorntilde">
          27 callsubr
          -145 -1662 rmoveto
          -66 callsubr
        </CharString>
        <CharString name="Uhungarumlaut">
          -100 callsubr
          27 1521 71 callgsubr
        </CharString>
        <CharString name="Uinvertedbreve">
          418 -46 callgsubr
          -29 -174 -56 callsubr
        </CharString>
        <CharString name="Umacron">
          -100 callsubr
          316 1618 -73 callgsubr
        </CharString>
        <CharString name="Umacrondieresis">
          -100 callsubr
          -184 1779 rmoveto
          -71 callgsubr
          -138 -258 rmoveto
          638 98 -638 hlineto
          502 160 rmoveto
          -71 callgsubr
          endchar
        </CharString>
        <CharString name="Uogonek">
          846 -416 rmoveto
          34 34 5 9 25 hvcurveto
          104 vlineto
          -4 -17 -26 -3 -24 hhcurveto
          -74 -49 47 69 72 49 65 114 80 hvcurveto
          150 106 69 147 215 vvcurveto
          947 -136 -938 vlineto
          3 callgsubr
          -24 callsubr
          -324 188 -202 300 50 53 13 20 33 vhcurveto
          -13 vlineto
          -91 -58 -48 -74 -82 84 callsubr
          vhcurveto
          endchar
        </CharString>
        <CharString name="Upsilondieresisgreek">
          -84 callgsubr
          -123 1666 -105 callsubr
        </CharString>
        <CharString name="Upsilongreek">
          -84 callgsubr
          endchar
        </CharString>
        <CharString name="Upsilontonosgreek">
          860 hmoveto
          624 vlineto
          369 819 66 callsubr
          -275 -680 rlineto
          -11 hlineto
          -276 680 66 callsubr
          371 -819 rlineto
          -624 vlineto
          -666 1116 1 callsubr
        </CharString>
        <CharString name="Uring">
          -100 callsubr
          -3 1468 1 callgsubr
        </CharString>
        <CharString name="Ushortcyrillic">
          1188 1443 -73 callsubr
          -425 1515 -56 callgsubr
        </CharString>
        <CharString name="Utilde">
          -100 callsubr
          142 1536 -79 callgsubr
          endchar
        </CharString>
        <CharString name="Utildeacute">
          -100 callsubr
          -62 1778 rmoveto
          126 hlineto
          165 209 rlineto
          -147 hlineto
          52 -530 -79 callsubr
          endchar
        </CharString>
        <CharString name="Utildebelow">
          -100 callsubr
          -149 -398 -101 callgsubr
        </CharString>
        <CharString name="V">
          10 callgsubr
          endchar
        </CharString>
        <CharString name="Vdotbelow">
          10 callgsubr
          -404 -1883 rmoveto
          -20 callsubr
        </CharString>
        <CharString name="Vecyrillic">
          -91 callgsubr
          endchar
        </CharString>
        <CharString name="Vtilde">
          10 callgsubr
          -259 189 -79 callgsubr
          endchar
        </CharString>
        <CharString name="W">
          6 callsubr
          endchar
        </CharString>
        <CharString name="Wacute">
          526 -16 callsubr
          -198 -999 -72 callsubr
        </CharString>
        <CharString name="Wcircumflex">
          695 1914 -77 callgsubr
          -346 -702 -72 callsubr
        </CharString>
        <CharString name="Wdieresis">
          824 1666 rmoveto
          -107 callsubr
          -382 hmoveto
          -107 callsubr
          196 -751 -72 callsubr
        </CharString>
        <CharString name="Wdotaccent">
          37 callsubr
          5 -745 -72 callsubr
        </CharString>
        <CharString name="Wdotbelow">
          -4 callgsubr
          5 1355 -72 callsubr
        </CharString>
        <CharString name="Wgrave">
          6 callsubr
          -201 999 90 callsubr
        </CharString>
        <CharString name="X">
          -54 callgsubr
          endchar
        </CharString>
        <CharString name="Xacyrillic">
          -54 callgsubr
          endchar
        </CharString>
        <CharString name="Xdieresis">
          -54 callgsubr
          -113 942 -105 callsubr
        </CharString>
        <CharString name="Xdotaccent">
          -54 callgsubr
          78 936 rmoveto
          -20 callsubr
        </CharString>
        <CharString name="Xigreek">
          165 hmoveto
          936 128 -936 hlineto
          78 547 rmoveto
          781 127 -781 hlineto
          -78 513 rmoveto
          936 128 -936 hlineto
          endchar
        </CharString>
        <CharString name="Y">
          -84 callgsubr
          endchar
        </CharString>
        <CharString name="Yacute">
          -84 callgsubr
          -39 -16 callsubr
          endchar
        </CharString>
        <CharString name="Ycircumflex">
          -84 callgsubr
          130 1914 -63 callgsubr
        </CharString>
        <CharString name="Ydieresis">
          -84 callgsubr
          -123 1666 -105 callsubr
        </CharString>
        <CharString name="Ydotaccent">
          -84 callgsubr
          68 49 callgsubr
          endchar
        </CharString>
        <CharString name="Ydotbelow">
          -84 callgsubr
          68 -13 callsubr
          endchar
        </CharString>
        <CharString name="Yericyrillic">
          256 761 -65 callsubr
        </CharString>
        <CharString name="Ygrave">
          427 1914 -58 callgsubr
          -36 143 callsubr
          624 vlineto
          488 819 66 callsubr
          -393 -680 rlineto
          -12 hlineto
          -393 680 66 callsubr
          488 -819 rlineto
          -624 vlineto
          endchar
        </CharString>
        <CharString name="Yhookabove">
          -84 callgsubr
          -95 1808 48 callgsubr
        </CharString>
        <CharString name="Yicyrillic">
          991 hmoveto
          -92 callgsubr
          167 1666 -105 callsubr
        </CharString>
        <CharString name="Ymacron">
          -84 callgsubr
          387 84 callgsubr
          endchar
        </CharString>
        <CharString name="Ytilde">
          -84 callgsubr
          213 31 callsubr
          endchar
        </CharString>
        <CharString name="Z">
          138 hmoveto
          -51 callsubr
          endchar
        </CharString>
        <CharString name="Zacute">
          138 hmoveto
          -51 callsubr
          385 1518 -82 callgsubr
          endchar
        </CharString>
        <CharString name="Zcaron">
          981 -88 callgsubr
          -554 143 callsubr
          -51 callsubr
          endchar
        </CharString>
        <CharString name="Zcircumflex">
          138 hmoveto
          -51 callsubr
          554 1815 -63 callgsubr
        </CharString>
        <CharString name="Zdotaccent">
          138 hmoveto
          -51 callsubr
          492 1561 rmoveto
          -20 callsubr
        </CharString>
        <CharString name="Zdotbelow">
          138 hmoveto
          -51 callsubr
          495 -539 rmoveto
          -20 callsubr
        </CharString>
        <CharString name="Zecyrillic">
          421 681 -58 callsubr
          endchar
        </CharString>
        <CharString name="Zetagreek">
          138 hmoveto
          -51 callsubr
          endchar
        </CharString>
        <CharString name="Zhecyrillic">
          -32 callsubr
          endchar
        </CharString>
        <CharString name="Zlinebelow">
          138 hmoveto
          -51 callsubr
          814 -485 -73 callgsubr
        </CharString>
        <CharString name="a">
          -107 callgsubr
          endchar
        </CharString>
        <CharString name="aacute">
          701 -84 callsubr
          329 -774 -98 callsubr
        </CharString>
        <CharString name="abreve">
          -107 callgsubr
          55 1270 -82 callsubr
        </CharString>
        <CharString name="abreveacute">
          -107 callgsubr
          -40 1571 0 callgsubr
          -112 -597 -82 callsubr
        </CharString>
        <CharString name="abrevedotbelow">
          -107 callgsubr
          55 1270 rmoveto
          -96 callsubr
          -22 -1807 rmoveto
          -20 callsubr
        </CharString>
        <CharString name="abrevegrave">
          282 19 callgsubr
          159 -1146 -98 callsubr
        </CharString>
        <CharString name="abrevehookabove">
          -107 callgsubr
          55 1270 rmoveto
          -96 callsubr
          -163 496 -89 callgsubr
          endchar
        </CharString>
        <CharString name="abrevetilde">
          -107 callgsubr
          55 1270 rmoveto
          -96 callsubr
          -146 490 -101 callgsubr
        </CharString>
        <CharString name="acaron">
          709 1296 -86 callgsubr
          338 -774 -98 callsubr
        </CharString>
        <CharString name="acircumflex">
          -107 callgsubr
          -29 1524 -102 callgsubr
          endchar
        </CharString>
        <CharString name="acircumflexacute">
          -107 callgsubr
          248 1571 0 callgsubr
          -484 -343 -102 callgsubr
          endchar
        </CharString>
        <CharString name="acircumflexdotbelow">
          -107 callgsubr
          -29 1524 -102 callgsubr
          -106 -2041 rmoveto
          -20 callsubr
        </CharString>
        <CharString name="acircumflexgrave">
          -107 callgsubr
          485 1571 rmoveto
          -207 296 rlineto
          113 callgsubr
          -372 -47 -102 callgsubr
          endchar
        </CharString>
        <CharString name="acircumflexhookabove">
          -107 callgsubr
          -29 1524 -102 callgsubr
          38 242 -89 callgsubr
          endchar
        </CharString>
        <CharString name="acircumflextilde">
          -107 callgsubr
          -91 1784 -103 callsubr
          62 -260 -102 callgsubr
          endchar
        </CharString>
        <CharString name="acute">
          579 -84 callsubr
          endchar
        </CharString>
        <CharString name="acutecmb">
          -107 76 -84 callsubr
          endchar
        </CharString>
        <CharString name="acutecmb.short">
          371 -16 callsubr
          endchar
        </CharString>
        <CharString name="acutedotaccentcmb">
          463 1367 rmoveto
          -104 callgsubr
          366 -71 -80 callsubr
          endchar
        </CharString>
        <CharString name="acutedotaccentcmb.short">
          612 -16 callsubr
          -433 -197 rmoveto
          -20 callsubr
        </CharString>
        <CharString name="acyrillic">
          -107 callgsubr
          endchar
        </CharString>
        <CharString name="adblgrave">
          664 1628 -40 callsubr
          353 -774 -98 callsubr
        </CharString>
        <CharString name="adieresis">
          -107 callgsubr
          -136 1209 -105 callsubr
        </CharString>
        <CharString name="adieresismacron">
          816 -39 callsubr
          573 -1211 -98 callsubr
        </CharString>
        <CharString name="adotaccent">
          -107 callgsubr
          55 1210 rmoveto
          -20 callsubr
        </CharString>
        <CharString name="adotbelow">
          -107 callgsubr
          33 -537 rmoveto
          -20 callsubr
        </CharString>
        <CharString name="adotmacron">
          -107 callgsubr
          374 1636 -88 callsubr
          319 -426 rmoveto
          -20 callsubr
        </CharString>
        <CharString name="ae">
          -80 callgsubr
          endchar
        </CharString>
        <CharString name="aeacute">
          716 -84 callsubr
          1 -788 rmoveto
          -141 vlineto
          -156 -89 -114 -123 -110 -54 65 130 119 65 70 122 10 vhcurveto
          316 124 rmoveto
          230 13 71 125 117 hhcurveto
          128 64 -118 -237 2 hvcurveto
          9 -358 rmoveto
          -111 -39 -58 -48 -96 hhcurveto
          -137 -78 143 247 2 hvcurveto
          20 526 47 vlineto
          341 -114 188 -206 -107 -87 -65 -125 -57 vhcurveto
          -4 hlineto
          115 -38 -101 75 -114 hhcurveto
          -160 -120 -108 -157 -17 hvcurveto
          118 hlineto
          90 11 67 61 86 hhcurveto
          119 73 -93 -151 hvcurveto
          -109 vlineto
          -208 -20 rlineto
          -196 -18 -100 -107 -192 vvcurveto
          -175 110 -125 155 135 114 91 147 50 vhcurveto
          4 hlineto
          -147 46 103 -91 121 hhcurveto
          164 103 94 183 38 hvcurveto
          endchar
        </CharString>
        <CharString name="aemacron">
          -80 callgsubr
          605 1280 -73 callgsubr
        </CharString>
        <CharString name="agrave">
          -107 callgsubr
          177 1199 -48 callsubr
          endchar
        </CharString>
        <CharString name="ahookabove">
          -107 callgsubr
          -107 1396 -89 callgsubr
          endchar
        </CharString>
        <CharString name="ainvertedbreve">
          968 1258 -55 callsubr
          43 -736 -98 callsubr
        </CharString>
        <CharString name="alphagreek">
          273 600 -21 callgsubr
        </CharString>
        <CharString name="alphatonosgreek">
          512 83 callgsubr
          -320 -1028 -21 callgsubr
        </CharString>
        <CharString name="amacron">
          -107 callgsubr
          374 1280 -73 callgsubr
        </CharString>
        <CharString name="ampersand">
          544 1363 rmoveto
          106 79 -81 -108 -118 -51 -69 -174 -117 hvcurveto
          -107 135 -38 80 89 vvcurveto
          108 79 81 106 vhcurveto
          -74 -630 rmoveto
          379 -487 rlineto
          -99 -78 -122 -55 -141 hhcurveto
          -177 -118 113 170 133 66 101 148 96 hvcurveto
          617 -705 rmoveto
          164 hlineto
          -216 262 67 130 33 143 7 187 rlinecurve
          -119 hlineto
          -5 -150 -21 -116 -41 -105 -337 440 rcurveline
          207 139 69 96 148 vvcurveto
          177 -127 122 -182 -182 -127 -122 -177 -101 52 -115 110 -139 vhcurveto
          -43 -29 rlineto
          -180 -122 -89 -137 -156 vvcurveto
          -236 175 -164 252 158 136 62 125 117 vhcurveto
          endchar
        </CharString>
        <CharString name="anoteleia">
          634 806 109 callgsubr
        </CharString>
        <CharString name="aogonek">
          570 98 rmoveto
          -149 -92 79 128 126 86 72 161 7 hvcurveto
          303 13 rlineto
          -150 vlineto
          -155 -135 -120 -174 vhcurveto
          315 -98 rmoveto
          -112 -64 -57 -79 -92 112 callgsubr
          -23 -3 -27 hhcurveto
          -67 -40 36 60 75 65 80 103 52 hvcurveto
          1 740 hlineto
          -90 callsubr
          14 hlineto
          endchar
        </CharString>
        <CharString name="approxequal">
          454 763 rmoveto
          42 36 -25 -67 57 hvcurveto
          -81 76 63 -34 73 151 callsubr
          -107 -6 -43 -55 -80 hhcurveto
          -41 -39 26 64 -55 hvcurveto
          82 -77 -64 35 -72 hhcurveto
          -158 -98 -103 -164 2 hvcurveto
          115 hlineto
          110 7 42 53 80 hhcurveto
          -418 vmoveto
          42 36 -24 -66 57 hvcurveto
          -81 76 62 -34 74 151 callsubr
          -108 -6 -43 -56 -80 hhcurveto
          -41 -39 26 65 -55 hvcurveto
          82 -77 -64 36 -72 hhcurveto
          -157 -99 -104 -163 2 hvcurveto
          115 hlineto
          109 7 41 52 81 hhcurveto
          endchar
        </CharString>
        <CharString name="aring">
          -107 callgsubr
          55 1254 -71 callsubr
        </CharString>
        <CharString name="aringacute">
          692 17 callgsubr
          254 -788 -98 callsubr
        </CharString>
        <CharString name="aringbelow">
          -107 callgsubr
          33 -576 -71 callsubr
        </CharString>
        <CharString name="arrowleftright">
          810 254 rmoveto
          456 458 -456 458 -86 -81 149 -143 199 -179 rlineto
          -878 hlineto
          199 179 149 143 -86 81 -456 -458 456 -458 86 81 -149 143 -199 179 rlineto
          878 hlineto
          -199 -179 -149 -143 rlineto
          endchar
        </CharString>
        <CharString name="asciicircum">
          624 1344 rmoveto
          17 hlineto
          229 -597 rlineto
          124 hlineto
          -280 696 rlineto
          -163 hlineto
          -280 -696 rlineto
          124 hlineto
          endchar
        </CharString>
        <CharString name="asciitilde">
          421 879 rmoveto
          -162 -110 -120 -177 hvcurveto
          -10 134 vlineto
          118 9 49 61 86 hhcurveto
          47 43 -28 -80 74 hvcurveto
          -87 84 73 -35 98 hhcurveto
          162 108 118 178 hvcurveto
          10 -132 vlineto
          -115 -8 -48 -64 -80 hhcurveto
          -54 -44 28 81 -74 hvcurveto
          87 -85 -73 35 -97 hhcurveto
          endchar
        </CharString>
        <CharString name="asterisk">
          1162 879 rmoveto
          -57 98 -424 -256 9 496 rlineto
          -114 hlineto
          10 -496 -425 256 -57 -98 434 -240 -434 -240 57 -98 424 256 -9 -496 rlineto
          114 hlineto
          -9 496 424 -256 57 98 -434 240 rlineto
          endchar
        </CharString>
        <CharString name="at">
          657 -195 rmoveto
          102 100 16 25 48 hvcurveto
          105 vlineto
          -23 -43 -98 -17 -89 hhcurveto
          -302 -143 207 438 hvcurveto
          175 vlineto
          431 134 205 281 261 143 -178 -323 vhcurveto
          -294 vlineto
          -109 -35 -39 -97 vhcurveto
          -174 405 hlineto
          70 -34 43 -54 -54 -34 -43 -70 vhcurveto
          -397 vlineto
          -70 45 -43 74 vhcurveto
          246 hlineto
          142 85 95 158 hvcurveto
          310 vlineto
          374 -189 217 -325 -339 -188 -260 -467 vhcurveto
          -214 vlineto
          -470 190 -257 347 vhcurveto
          endchar
        </CharString>
        <CharString name="atilde">
          -107 callgsubr
          -91 1334 -101 callgsubr
        </CharString>
        <CharString name="austral">
          1213 hmoveto
          -151 427 rlineto
          117 105 -154 hlineto
          -67 189 rlineto
          221 106 -259 hlineto
          -219 616 rlineto
          -137 hlineto
          -219 -616 rlineto
          -259 -106 222 hlineto
          -67 -189 rlineto
          -155 -105 118 hlineto
          -151 -427 rlineto
          143 hlineto
          146 427 rlineto
          582 hlineto
          145 -427 rlineto
          -692 532 rmoveto
          66 196 rlineto
          379 hlineto
          67 -196 rlineto
          -251 732 rmoveto
          154 -444 rlineto
          -318 hlineto
          153 444 rlineto
          endchar
        </CharString>
        <CharString name="b">
          -69 callgsubr
          endchar
        </CharString>
        <CharString name="backslash">
          1051 -99 rmoveto
          -711 1641 rlineto
          -125 hlineto
          711 -1641 rlineto
          endchar
        </CharString>
        <CharString name="baht">
          614 688 rmoveto
          231 -5 126 -99 -178 vvcurveto
          -184 -125 -100 -232 -1 vhcurveto
          -323 hmoveto
          567 221 -567 vlineto
          -221 1201 rmoveto
          221 -515 -221 hlineto
          323 515 rmoveto
          179 -7 108 -94 -156 vvcurveto
          -154 -103 -88 -184 -14 vhcurveto
          166 -40 rmoveto
          150 27 109 129 162 vvcurveto
          219 -160 137 -260 vhcurveto
          -5 156 -102 -156 -358 -55 callgsubr
          358 -150 102 150 16 hlineto
          305 176 148 251 198 -133 137 -198 22 hvcurveto
          endchar
        </CharString>
        <CharString name="bar">
          690 -483 rmoveto
          2025 -114 -2025 vlineto
          endchar
        </CharString>
        <CharString name="bdotaccent">
          -69 callgsubr
          81 1208 rmoveto
          -20 callsubr
        </CharString>
        <CharString name="bdotbelow">
          -69 callgsubr
          -19 -539 rmoveto
          -20 callsubr
        </CharString>
        <CharString name="becyrillic">
          1077 1505 rmoveto
          -49 -21 -114 -24 -73 -4 rrcurveto
          -3 -50 -70 -3 -14 hhcurveto
          -394 -12 -156 -237 -584 vvcurveto
          -415 171 -221 321 304 188 211 339 324 -185 208 -289 -175 -139 -84 -148 -71 vhcurveto
          -12 hlineto
          36 353 120 136 285 8 rrcurveto
          23 97 5 2 17 hvcurveto
          87 4 67 16 75 33 rrcurveto
          -428 -1289 rmoveto
          -223 -134 162 270 258 134 156 223 223 134 -156 -258 -270 -134 -162 -223 hvcurveto
          endchar
        </CharString>
        <CharString name="betagreek">
          197 -365 rmoveto
          131 524 18 hlineto
          -125 59 117 -52 171 hhcurveto
          256 162 182 265 210 -109 136 -205 43 hvcurveto
          13 vlineto
          134 47 79 117 152 vvcurveto
          231 -141 146 -246 -275 -151 -176 -319 vhcurveto
          489 -928 rmoveto
          -220 -141 114 262 hvcurveto
          537 vlineto
          264 99 128 199 165 91 -105 -162 -170 -101 -97 -176 vhcurveto
          -109 -118 108 hlineto
          243 136 -116 -214 -190 -115 -133 -179 hvcurveto
          endchar
        </CharString>
        <CharString name="bitcoin">
          324 151 rmoveto
          528 288 vlineto
          253 124 -90 -169 -165 -114 -104 -231 hvcurveto
          -320 1139 rmoveto
          295 hlineto
          193 104 -87 -151 -160 -125 -91 -222 hvcurveto
          -245 hlineto
          473 -38 rmoveto
          147 25 110 134 153 vvcurveto
          191 -122 122 -220 20 vhcurveto
          199 -98 -196 -153 196 -98 -196 -175 -1382 175 -194 98 194 153 -194 98 195 vlineto
          274 15 144 149 222 vvcurveto
          187 -130 124 -203 23 vhcurveto
          endchar
        </CharString>
        <CharString name="blinebelow">
          -69 callgsubr
          300 -485 -73 callgsubr
        </CharString>
        <CharString name="braceleft">
          1013 -99 rmoveto
          99 -114 vlineto
          -153 -30 36 178 hvcurveto
          262 vlineto
          141 -107 95 -211 2 vhcurveto
          15 vlineto
          211 2 107 95 141 vvcurveto
          262 vlineto
          178 30 36 153 vhcurveto
          114 99 -127 hlineto
          -226 -70 -71 -232 hvcurveto
          -225 vlineto
          -153 -97 -102 -240 30 vhcurveto
          -135 vlineto
          240 30 97 -102 -153 vvcurveto
          -225 vlineto
          -232 70 -71 226 vhcurveto
          endchar
        </CharString>
        <CharString name="braceright">
          380 -99 rmoveto
          226 70 71 232 hvcurveto
          225 vlineto
          153 97 102 240 -30 vhcurveto
          135 vlineto
          -240 -30 -97 102 153 vvcurveto
          225 vlineto
          232 -70 71 -226 vhcurveto
          -127 -99 114 hlineto
          153 30 -36 -178 hvcurveto
          -262 vlineto
          -141 107 -95 211 -2 vhcurveto
          -15 vlineto
          -211 -2 -107 -95 -141 vvcurveto
          -262 vlineto
          -178 -30 -36 -153 vhcurveto
          -114 -99 hlineto
          endchar
        </CharString>
        <CharString name="bracketleft">
          388 1542 rmoveto
          -1641 490 99 -364 -39 callgsubr
          364 99 vlineto
          endchar
        </CharString>
        <CharString name="bracketright">
          388 1542 rmoveto
          -99 364 -55 callgsubr
          -364 -99 490 1641 vlineto
          endchar
        </CharString>
        <CharString name="breve">
          32 callgsubr
          endchar
        </CharString>
        <CharString name="breveacutecmb">
          538 1668 0 callgsubr
          -112 -597 -82 callsubr
        </CharString>
        <CharString name="breveacutecmb.short">
          526 1838 rmoveto
          139 hlineto
          183 208 117 callsubr
          -387 -208 rmoveto
          11 callsubr
          -118 hlineto
          38 callsubr
          endchar
        </CharString>
        <CharString name="brevebelowcmb">
          633 -369 -82 callsubr
        </CharString>
        <CharString name="brevecmb">
          32 callgsubr
          endchar
        </CharString>
        <CharString name="brevecmb.short">
          303 1914 -43 callgsubr
        </CharString>
        <CharString name="brevecyrillic">
          317 -47 callsubr
          endchar
        </CharString>
        <CharString name="brevecyrillic.short">
          -1 callsubr
          endchar
        </CharString>
        <CharString name="brevegravecmb">
          290 19 callgsubr
          endchar
        </CharString>
        <CharString name="brevegravecmb.short">
          110 callgsubr
          -298 hmoveto
          11 callsubr
          -118 hlineto
          38 callsubr
          endchar
        </CharString>
        <CharString name="brevehookabovecmb">
          32 callgsubr
          -163 496 -89 callgsubr
          endchar
        </CharString>
        <CharString name="brevehookabovecmb.short">
          483 1975 rmoveto
          11 20 41 8 33 hhcurveto
          51 35 -28 -41 -41 -31 -37 -49 -19 hvcurveto
          75 -58 rlineto
          69 25 47 65 70 vvcurveto
          87 -68 59 -100 -48 -52 -8 -11 -23 vhcurveto
          -180 -219 rmoveto
          11 callsubr
          -118 hlineto
          38 callsubr
          endchar
        </CharString>
        <CharString name="brevetildecmb">
          32 callgsubr
          -146 490 -101 callgsubr
        </CharString>
        <CharString name="brevetildecmb.short">
          303 1797 70 callsubr
          354 48 rmoveto
          110 81 83 114 hvcurveto
          -105 hlineto
          60 callsubr
          endchar
        </CharString>
        <CharString name="brokenbar">
          690 782 rmoveto
          760 -114 -760 vlineto
          114 -1265 rmoveto
          760 -114 -760 vlineto
          endchar
        </CharString>
        <CharString name="bullet">
          633 227 rmoveto
          226 186 186 226 226 -186 186 -226 -226 -186 -186 -226 -226 186 -186 226 hvcurveto
          endchar
        </CharString>
        <CharString name="c">
          1067 760 -8 callsubr
        </CharString>
        <CharString name="cacute">
          712 -84 callsubr
          506 -9 callgsubr
        </CharString>
        <CharString name="caron">
          717 1296 -86 callgsubr
          endchar
        </CharString>
        <CharString name="caroncmb">
          717 1296 -86 callgsubr
          endchar
        </CharString>
        <CharString name="caroncmb.short">
          984 -88 callgsubr
          endchar
        </CharString>
        <CharString name="carondotaccentcmb">
          633 1702 rmoveto
          -104 callgsubr
          84 -406 -86 callgsubr
          endchar
        </CharString>
        <CharString name="carondotaccentcmb.short">
          633 1849 rmoveto
          144 callgsubr
          -58 46 -46 58 hvcurveto
          73 -272 -5 callgsubr
          endchar
        </CharString>
        <CharString name="ccaron">
          720 1296 -86 callgsubr
          515 -9 callgsubr
        </CharString>
        <CharString name="ccedilla">
          330 593 -26 callgsubr
          -274 142 -174 241 -28 vhcurveto
          -59 -150 rlineto
          -71 57 vlineto
          -95 callsubr
          49 128 199 17 144 128 26 188 rlinecurve
          -130 hlineto
          -128 -22 -119 -89 -147 hhcurveto
          -205 -114 137 247 hvcurveto
          endchar
        </CharString>
        <CharString name="ccedillaacute">
          971 1628 49 callsubr
          -382 -703 -26 callgsubr
          -275 143 -175 242 -26 vhcurveto
          -58 -150 rlineto
          -71 57 vlineto
          -95 callsubr
          49 128 198 18 142 128 26 187 rlinecurve
          -130 hlineto
          -128 -22 -119 -89 -147 hhcurveto
          -205 -114 137 247 hvcurveto
          endchar
        </CharString>
        <CharString name="ccircumflex">
          1067 760 -83 callsubr
          -385 861 -102 callgsubr
          endchar
        </CharString>
        <CharString name="cdotaccent">
          1067 760 -83 callsubr
          -301 557 rmoveto
          -20 callsubr
        </CharString>
        <CharString name="cedi">
          610 100 rmoveto
          -264 28 -146 236 357 vvcurveto
          357 147 238 263 27 vhcurveto
          464 -932 rmoveto
          -36 -176 -130 -120 -195 -16 rrcurveto
          1244 vlineto
          188 -16 135 -136 38 -189 rrcurveto
          138 hlineto
          -35 259 -194 190 -270 20 rrcurveto
          128 -103 -129 vlineto
          -352 -25 -198 -284 -440 vvcurveto
          -440 198 -282 352 -26 vhcurveto
          -160 103 159 vlineto
          277 16 185 171 37 252 rrcurveto
          endchar
        </CharString>
        <CharString name="cedilla">
          478 22 callgsubr
        </CharString>
        <CharString name="cedillacmb">
          523 22 callgsubr
        </CharString>
        <CharString name="cent">
          917 465 rmoveto
          -92 -19 -114 -70 -132 hhcurveto
          -191 -114 127 213 hvcurveto
          180 vlineto
          218 117 135 188 128 108 -77 -106 21 vhcurveto
          132 hlineto
          -15 150 -129 114 -173 25 rrcurveto
          161 -145 -160 vlineto
          -228 -29 -137 -166 -254 vvcurveto
          -198 vlineto
          -254 137 -166 228 -29 vhcurveto
          -164 145 165 vlineto
          176 26 146 119 6 132 rrcurveto
          endchar
        </CharString>
        <CharString name="checyrillic">
          1026 1077 rmoveto
          -131 -417 hlineto
          -21 callsubr
          131 hlineto
          endchar
        </CharString>
        <CharString name="chigreek">
          184 -365 rmoveto
          141 hlineto
          306 588 rlineto
          12 hlineto
          215 -426 rlineto
          -124 63 47 -48 115 hhcurveto
          30 27 3 7 23 hvcurveto
          112 vlineto
          -4 -19 -13 -2 -19 hhcurveto
          -61 -46 37 87 -44 hvcurveto
          -242 483 398 729 rlineto
          -141 hlineto
          -311 -596 rlineto
          -12 hlineto
          -212 426 rlineto
          137 -68 -46 43 -113 hhcurveto
          -30 -25 -2 -8 -24 hvcurveto
          -111 vlineto
          3 16 22 2 14 hhcurveto
          65 33 -28 -87 44 hvcurveto
          249 -496 rlineto
          endchar
        </CharString>
        <CharString name="circumflex">
          549 1621 -102 callgsubr
          endchar
        </CharString>
        <CharString name="circumflexacutecmb">
          826 1668 0 callgsubr
          -484 -343 -102 callgsubr
          endchar
        </CharString>
        <CharString name="circumflexacutecmb.short">
          823 1829 rmoveto
          149 hlineto
          243 217 rlineto
          -168 hlineto
          -341 -245 -66 callgsubr
          endchar
        </CharString>
        <CharString name="circumflexbelowcmb">
          549 -169 -102 callgsubr
          endchar
        </CharString>
        <CharString name="circumflexcmb">
          549 1621 -102 callgsubr
          endchar
        </CharString>
        <CharString name="circumflexcmb.short">
          695 1914 -63 callgsubr
        </CharString>
        <CharString name="circumflexgravecmb">
          1063 1668 rmoveto
          -207 296 rlineto
          113 callgsubr
          -372 -47 -102 callgsubr
          endchar
        </CharString>
        <CharString name="circumflexgravecmb.short">
          1041 1829 6 callgsubr
          -186 -28 -66 callgsubr
          endchar
        </CharString>
        <CharString name="circumflexhookabovecmb">
          549 1621 -102 callgsubr
          38 242 -89 callgsubr
          endchar
        </CharString>
        <CharString name="circumflexhookabovecmb.short">
          748 1975 -30 callgsubr
        </CharString>
        <CharString name="circumflextildecmb">
          487 1881 -103 callsubr
          62 -260 -102 callgsubr
          endchar
        </CharString>
        <CharString name="circumflextildecmb.short">
          706 1801 -66 callgsubr
          -221 272 -79 callsubr
          endchar
        </CharString>
        <CharString name="colon">
          633 hmoveto
          16 callgsubr
          773 vmoveto
          16 callgsubr
          endchar
        </CharString>
        <CharString name="coloncurrency">
          604 -187 rmoveto
          65 182 rlineto
          -13 63 68 -6 70 hhcurveto
          103 97 10 21 87 hvcurveto
          128 vlineto
          -20 -70 -106 -13 -110 hhcurveto
          -55 -53 5 9 -49 hvcurveto
          529 1483 rlineto
          -105 hlineto
          -53 -150 rlineto
          8 -56 -60 8 -79 hhcurveto
          -12 -11 0 -1 -12 hvcurveto
          48 135 rlineto
          -104 hlineto
          -49 -139 rlineto
          -400 -40 -261 -270 -429 vvcurveto
          -234 73 -183 129 -126 vhcurveto
          -131 -365 rlineto
          105 hlineto
          106 300 59 -41 68 -33 75 -23 rlinecurve
          -73 -203 rlineto
          -153 514 rmoveto
          -78 99 -42 131 164 vvcurveto
          332 187 214 285 57 vhcurveto
          -81 -1186 rmoveto
          -76 24 -66 36 -56 47 388 1092 rcurveline
          2 17 19 0 17 hhcurveto
          68 62 -3 -6 50 hvcurveto
          endchar
        </CharString>
        <CharString name="comma">
          566 -335 rmoveto
          178 696 rlineto
          -197 hlineto
          -129 -696 rlineto
          endchar
        </CharString>
        <CharString name="commaaccent">
          638 -494 -41 callsubr
        </CharString>
        <CharString name="commabelowcmb">
          638 -523 -41 callsubr
        </CharString>
        <CharString name="copyright">
          875 819 rmoveto
          114 -19 -92 79 -119 hhcurveto
          -158 -102 -110 -180 -180 102 -110 158 119 94 78 109 17 hvcurveto
          -109 hlineto
          -51 -13 -45 -33 -62 hhcurveto
          -94 -55 73 114 114 55 73 94 62 40 -35 -55 18 hvcurveto
          -133 -647 rmoveto
          303 239 239 310 310 -239 239 -303 -303 -239 -239 -310 -310 239 -239 303 hvcurveto
          98 vmoveto
          -245 -191 199 252 252 191 199 245 245 191 -199 -252 -252 -191 -199 -245 hvcurveto
          endchar
        </CharString>
        <CharString name="cruzeiro">
          1157 135 rmoveto
          -19 -67 -100 -13 -104 hhcurveto
          -11 -11 -1 1 -12 hvcurveto
          367 vlineto
          170 96 120 146 34 44 -6 -6 15 vhcurveto
          132 vlineto
          3 -22 -26 4 -27 hhcurveto
          -130 -94 -81 -121 -29 hvcurveto
          -12 184 -125 -755 hlineto
          -306 48 -189 210 349 vvcurveto
          390 259 228 376 119 99 -11 -15 62 vhcurveto
          124 vlineto
          17 -75 -89 12 -116 hhcurveto
          -460 -312 -276 -469 -482 302 -263 478 103 97 10 21 87 hvcurveto
          endchar
        </CharString>
        <CharString name="currency">
          1119 1060 rmoveto
          -83 80 -175 -182 rlineto
          46 -60 -75 24 -79 hhcurveto
          -79 -75 -24 -46 -60 hvcurveto
          -176 182 -85 -80 178 -183 rlineto
          -44 -61 -23 -75 -81 vvcurveto
          -81 23 -76 44 -62 vhcurveto
          -178 -184 85 -79 175 183 rlineto
          -46 61 75 -24 79 hhcurveto
          79 74 24 45 60 hvcurveto
          176 -182 83 79 -175 182 rlineto
          45 63 23 75 83 vvcurveto
          80 -23 75 -44 64 vhcurveto
          -298 -494 rmoveto
          -155 -111 115 160 160 111 115 155 155 111 -115 -160 -160 -111 -115 -155 hvcurveto
          endchar
        </CharString>
        <CharString name="d">
          296 610 -90 callgsubr
        </CharString>
        <CharString name="dagger">
          690 787 rmoveto
          111 callsubr
          -958 114 hlineto
          endchar
        </CharString>
        <CharString name="daggerdbl">
          1113 280 rmoveto
          116 -423 391 111 callsubr
          -391 -423 -116 423 -451 114 451 vlineto
          endchar
        </CharString>
        <CharString name="darkshade">
          1054 1354 rmoveto
          -106 -105 106 vlineto
          -105 141 callsubr
          -105 141 callsubr
          -106 hmoveto
          -106 -104 106 vlineto
          -106 hmoveto
          -106 -105 106 vlineto
          843 -317 rmoveto
          -105 106 105 hlineto
          -632 147 callsubr
          843 147 callsubr
          -633 147 callsubr
          211 -106 rmoveto
          -105 106 105 hlineto
          -105 -212 rmoveto
          -104 -106 104 vlineto
          527 hmoveto
          -104 -105 104 vlineto
          -105 hmoveto
          -104 -106 104 vlineto
          -317 hmoveto
          -104 -104 104 vlineto
          -106 hmoveto
          -104 -105 104 vlineto
          843 -210 rmoveto
          -106 -105 106 vlineto
          -317 141 callsubr
          739 141 callsubr
          -316 hmoveto
          -106 -105 106 vlineto
          -316 147 callsubr
          737 -211 rmoveto
          -106 -105 106 vlineto
          -632 -106 rmoveto
          106 104 -106 vlineto
          -210 106 rmoveto
          -106 -105 106 vlineto
          738 141 callsubr
          -105 141 callsubr
          317 -316 rmoveto
          105 105 -105 vlineto
          -738 hmoveto
          105 106 -105 vlineto
          316 hmoveto
          105 105 -105 vlineto
          316 hmoveto
          105 106 -105 vlineto
          -739 hmoveto
          105 106 -105 vlineto
          317 -106 rmoveto
          -105 -106 148 callsubr
          -105 105 vlineto
          315 hmoveto
          -105 -104 105 vlineto
          737 hmoveto
          -105 -105 105 vlineto
          -316 hmoveto
          -105 -106 105 vlineto
          106 -316 rmoveto
          105 105 -105 vlineto
          316 hmoveto
          105 106 -105 vlineto
          -949 hmoveto
          105 106 -105 vlineto
          104 hmoveto
          105 106 -105 vlineto
          317 hmoveto
          105 105 -105 vlineto
          -738 -211 rmoveto
          106 106 104 -106 106 106 106 -106 105 106 106 -106 105 106 105 -106 106 106 106 316 -106 105 106 316 -106 106 106 317 -106 104 106 317 -106 106 106 210 -106 -106 -106 106 -105 -106 -105 106 -106 -106 -105 hlineto
          106 -106 -106 -106 106 -104 -106 -106 106 -105 -106 -106 -315 106 -106 -106 -316 106 -106 -106 -316 106 -105 -106 -317 106 -105 -106 -211 106 106 105 vlineto
          endchar
        </CharString>
        <CharString name="dbldnhorzbxd">
          89 callsubr
          1538 -408 56 callgsubr
          -272 -1196 rmoveto
          54 callsubr
        </CharString>
        <CharString name="dbldnleftbxd">
          837 -840 rmoveto
          1604 -973 -136 837 -1468 vlineto
          -136 hmoveto
          54 callsubr
        </CharString>
        <CharString name="dbldnrightbxd">
          1402 628 rmoveto
          136 -973 -1604 136 1468 vlineto
          837 -272 56 callgsubr
          endchar
        </CharString>
        <CharString name="dblgrave">
          788 1628 -40 callsubr
          endchar
        </CharString>
        <CharString name="dblgravecmb">
          788 1628 -40 callsubr
          endchar
        </CharString>
        <CharString name="dblgravecmb.short">
          767 1914 -58 callgsubr
          -674 297 90 callsubr
        </CharString>
        <CharString name="dblhorzbxd">
          89 callsubr
          -408 vmoveto
          50 callgsubr
          endchar
        </CharString>
        <CharString name="dbluphorzbxd">
          701 628 rmoveto
          701 136 -565 1196 45 callsubr
          -272 vmoveto
          50 callgsubr
          endchar
        </CharString>
        <CharString name="dblupleftbxd">
          565 628 rmoveto
          36 callgsubr
          -1196 -565 -136 vlineto
          973 -272 rmoveto
          1604 -136 -1468 -837 -136 vlineto
          endchar
        </CharString>
        <CharString name="dbluprightbxd">
          701 628 138 callgsubr
          -272 -1604 rmoveto
          973 136 -837 1468 -136 hlineto
          endchar
        </CharString>
        <CharString name="dblvertbxd">
          136 callsubr
          -272 -2800 63 callgsubr
          endchar
        </CharString>
        <CharString name="dblverthorzbxd">
          701 628 rmoveto
          701 136 -565 1196 45 callsubr
          1538 -272 56 callgsubr
          -272 -1196 rmoveto
          54 callsubr
        </CharString>
        <CharString name="dblvertleftbxd">
          701 -840 rmoveto
          136 2800 45 callsubr
          701 -1468 rmoveto
          54 callsubr
        </CharString>
        <CharString name="dblvertrightbxd">
          429 58 callgsubr
          272 -1332 138 callgsubr
          701 -1604 56 callgsubr
          endchar
        </CharString>
        <CharString name="dcaron">
          234 610 rmoveto
          234 104 133 184 183 104 -133 -234 vhcurveto
          -144 vlineto
          -234 -104 -133 -183 -184 -104 133 234 vhcurveto
          578 79 callgsubr
          121 -54 -94 56 -147 hhcurveto
          -241 -149 -173 -280 hvcurveto
          -207 vlineto
          -280 149 -173 241 143 90 52 121 68 vhcurveto
          298 1351 rmoveto
          -444 92 vlineto
          38 444 rlineto
          endchar
        </CharString>
        <CharString name="dcircumflexbelow">
          549 -169 -102 callgsubr
          -421 779 -90 callgsubr
        </CharString>
        <CharString name="dcommaaccent">
          638 -523 rmoveto
          116 364 98 callgsubr
          -102 -364 rlineto
          -216 1133 -90 callgsubr
        </CharString>
        <CharString name="dcroat">
          41 callgsubr
          295 766 rmoveto
          -167 130 -131 -130 -255 -97 255 -361 -18 hlineto
          -83 callgsubr
          153 115 60 113 63 vhcurveto
          18 -155 125 1279 167 hlineto
          endchar
        </CharString>
        <CharString name="ddotaccent">
          533 48 callsubr
          -237 -697 -90 callgsubr
        </CharString>
        <CharString name="ddotbelow">
          -4 callgsubr
          -337 1050 -90 callgsubr
        </CharString>
        <CharString name="decyrillic">
          4 callsubr
        </CharString>
        <CharString name="degree">
          634 856 rmoveto
          175 130 128 172 172 -130 128 -175 -175 -130 -128 -172 -172 130 -128 175 hvcurveto
          98 vmoveto
          -115 -85 86 116 116 85 86 115 115 85 -86 -116 -116 -85 -86 -115 hvcurveto
          endchar
        </CharString>
        <CharString name="deltagreek">
          1134 510 rmoveto
          287 -153 131 -303 141 vhcurveto
          -175 82 -42 47 72 vvcurveto
          85 87 52 138 124 118 -34 -53 97 vhcurveto
          131 vlineto
          46 -74 -125 27 -134 hhcurveto
          -214 -148 -104 -150 -109 60 -74 166 -83 hvcurveto
          -15 vlineto
          -262 -37 -154 -185 -259 vvcurveto
          -31 vlineto
          -321 184 -174 317 302 191 191 317 vhcurveto
          -492 407 rmoveto
          211 147 -156 -236 hvcurveto
          -10 vlineto
          -254 -128 -143 -227 -235 -135 128 256 vhcurveto
          24 vlineto
          252 149 139 218 vhcurveto
          endchar
        </CharString>
        <CharString name="dieresis">
          -7 callsubr
          endchar
        </CharString>
        <CharString name="dieresisacutecmb">
          538 1668 0 callgsubr
          -303 -634 -105 callsubr
        </CharString>
        <CharString name="dieresisacutecmb.short">
          510 1829 rmoveto
          149 hlineto
          243 217 rlineto
          -168 hlineto
          -282 -478 rmoveto
          -71 callgsubr
          364 hmoveto
          -71 callgsubr
          endchar
        </CharString>
        <CharString name="dieresisbelowcmb">
          442 -434 -105 callsubr
        </CharString>
        <CharString name="dieresiscaroncmb">
          710 1668 rmoveto
          275 306 rlineto
          -154 hlineto
          -192 -217 rlineto
          -12 hlineto
          -192 217 rlineto
          -154 hlineto
          275 -306 rlineto
          -114 -338 -105 callsubr
        </CharString>
        <CharString name="dieresiscaroncmb.short">
          706 1832 -5 callgsubr
          -108 -264 rmoveto
          -71 callgsubr
          364 hmoveto
          -71 callgsubr
          endchar
        </CharString>
        <CharString name="dieresiscmb">
          442 1306 -105 callsubr
        </CharString>
        <CharString name="dieresiscmb.short">
          442 1666 -105 callsubr
        </CharString>
        <CharString name="dieresisgravecmb">
          -7 callsubr
          -303 634 rmoveto
          113 callgsubr
          142 hlineto
          endchar
        </CharString>
        <CharString name="dieresisgravecmb.short">
          452 1568 rmoveto
          -71 callgsubr
          364 hmoveto
          -71 callgsubr
          -282 478 rmoveto
          -168 hlineto
          243 -217 rlineto
          149 hlineto
          endchar
        </CharString>
        <CharString name="dieresismacroncmb">
          -17 callsubr
          endchar
        </CharString>
        <CharString name="dieresismacroncmb.short">
          816 1754 -37 callgsubr
          endchar
        </CharString>
        <CharString name="dieresistonosgreek">
          533 1296 -41 callgsubr
        </CharString>
        <CharString name="divide">
          1119 581 rmoveto
          116 -972 -116 vlineto
          487 291 rmoveto
          61 47 46 151 callgsubr
          -46 60 hvcurveto
          -683 vmoveto
          61 47 45 151 callgsubr
          -45 60 hvcurveto
          endchar
        </CharString>
        <CharString name="djecyrillic">
          332 883 rmoveto
          397 250 97 -250 129 -125 -129 -177 -97 177 -1280 131 -2 callgsubr
          -739 vlineto
          -131 -51 -51 -129 vhcurveto
          -26 -113 29 hlineto
          213 95 92 205 hvcurveto
          770 vlineto
          256 -127 139 -235 -167 -126 -76 -136 -59 vhcurveto
          endchar
        </CharString>
        <CharString name="dlinebelow">
          952 -386 -88 callsubr
          -18 996 -90 callgsubr
        </CharString>
        <CharString name="dndblhorzsngbxd">
          88 callsubr
          -1538 72 callsubr
        </CharString>
        <CharString name="dndblleftsngbxd">
          104 callsubr
          136 1468 -973 72 callsubr
        </CharString>
        <CharString name="dndblrightsngbxd">
          88 callsubr
          -973 -1468 58 callsubr
          161 callsubr
        </CharString>
        <CharString name="dneighthblock">
          92 callsubr
          256 101 callgsubr
        </CharString>
        <CharString name="dnfiveeighthsblock">
          92 callsubr
          1280 101 callgsubr
        </CharString>
        <CharString name="dnhalfblock">
          92 callsubr
          1024 101 callgsubr
        </CharString>
        <CharString name="dnheavyhorzlightbxd">
          4 callgsubr
          -1538 160 callgsubr
          -1332 66 callgsubr
        </CharString>
        <CharString name="dnheavyleftlightbxd">
          120 callsubr
          1468 -891 123 callsubr
        </CharString>
        <CharString name="dnheavyleftuplightbxd">
          120 callsubr
          1468 -54 82 callgsubr
          -701 123 callsubr
        </CharString>
        <CharString name="dnheavyrightlightbxd">
          4 callgsubr
          -891 -1468 66 callgsubr
        </CharString>
        <CharString name="dnheavyrightuplightbxd">
          -10 callsubr
          -1332 -54 -1468 66 callgsubr
        </CharString>
        <CharString name="dnheavyuphorzlightbxd">
          -10 callsubr
          -1332 -701 160 callgsubr
          -1332 66 callgsubr
        </CharString>
        <CharString name="dnleftquadrant">
          -464 vmoveto
          91 callgsubr
        </CharString>
        <CharString name="dnlighthorzheavybxd">
          -31 callsubr
          -1538 54 callgsubr
        </CharString>
        <CharString name="dnlightleftheavybxd">
          104 callsubr
          1522 -837 124 callgsubr
        </CharString>
        <CharString name="dnlightleftupheavybxd">
          755 438 rmoveto
          1522 99 callsubr
        </CharString>
        <CharString name="dnlightrightheavybxd">
          -31 callsubr
          -837 -1522 136 43 callsubr
        </CharString>
        <CharString name="dnlightrightupheavybxd">
          -31 callsubr
          -647 1278 -244 -1522 54 -1278 136 43 callsubr
        </CharString>
        <CharString name="dnlightuphorzheavybxd">
          -31 callsubr
          -647 1278 99 callsubr
        </CharString>
        <CharString name="dnquarterblock">
          92 callsubr
          512 101 callgsubr
        </CharString>
        <CharString name="dnrightquadrant">
          633 -464 rmoveto
          91 callgsubr
        </CharString>
        <CharString name="dnseveneighthsblock">
          92 callsubr
          1792 101 callgsubr
        </CharString>
        <CharString name="dnsnghorzdblbxd">
          89 callsubr
          1538 -408 rmoveto
          153 callsubr
          127 callsubr
        </CharString>
        <CharString name="dnsngleftdblbxd">
          104 callsubr
          1604 -837 125 callsubr
          -136 104 callgsubr
          149 callgsubr
        </CharString>
        <CharString name="dnsngrightdblbxd">
          1402 356 142 callgsubr
          136 701 136 -837 -1604 147 callgsubr
        </CharString>
        <CharString name="dnthreeeighthsblock">
          92 callsubr
          768 101 callgsubr
        </CharString>
        <CharString name="dnthreequartersblock">
          92 callsubr
          1536 101 callgsubr
        </CharString>
        <CharString name="dollar">
          707 658 rmoveto
          204 -53 85 -83 -144 vvcurveto
          -155 -115 -110 -174 -20 vhcurveto
          -114 725 rmoveto
          -192 55 -75 75 137 vvcurveto
          149 101 98 166 18 vhcurveto
          114 -562 rmoveto
          561 vlineto
          150 -19 99 -95 18 -145 rrcurveto
          132 hlineto
          -13 215 -155 145 -231 21 rrcurveto
          113 -114 -113 vlineto
          -245 -20 -157 -147 -219 vvcurveto
          -204 122 -122 274 -70 vhcurveto
          6 -2 rlineto
          -594 vlineto
          -171 19 -118 107 -17 156 rrcurveto
          -132 hlineto
          16 -232 167 -151 255 -20 rrcurveto
          -113 114 113 vlineto
          258 20 166 157 229 vvcurveto
          212 -116 117 -287 75 vhcurveto
          endchar
        </CharString>
        <CharString name="dotaccent">
          633 48 callsubr
          endchar
        </CharString>
        <CharString name="dotaccentcmb">
          633 48 callsubr
          endchar
        </CharString>
        <CharString name="dotaccentcmb.short">
          37 callsubr
          endchar
        </CharString>
        <CharString name="dotbelowcmb">
          -4 callgsubr
          endchar
        </CharString>
        <CharString name="dotlessi">
          1102 hmoveto
          -62 callsubr
          endchar
        </CharString>
        <CharString name="dotlessj">
          -27 callsubr
          endchar
        </CharString>
        <CharString name="dotmacroncmb">
          952 1733 -88 callsubr
          319 -426 rmoveto
          -20 callsubr
        </CharString>
        <CharString name="dotmacroncmb.short">
          59 callgsubr
          endchar
        </CharString>
        <CharString name="dzecyrillic">
          257 797 rmoveto
          30 callsubr
          vhcurveto
          159 -38 rlineto
          -101 callsubr
          hvcurveto
          endchar
        </CharString>
        <CharString name="dzhecyrillic">
          1068 1077 rmoveto
          -131 -966 -608 966 150 callgsubr
          373 -285 124 285 373 hlineto
          endchar
        </CharString>
        <CharString name="e">
          -105 callgsubr
          endchar
        </CharString>
        <CharString name="eacute">
          717 -84 callsubr
          380 -1030 -94 callgsubr
        </CharString>
        <CharString name="ebreve">
          -105 callgsubr
          -435 1111 -82 callsubr
        </CharString>
        <CharString name="ecaron">
          725 1296 -86 callgsubr
          389 -1030 -94 callgsubr
        </CharString>
        <CharString name="ecedilla">
          332 612 -32 callgsubr
        </CharString>
        <CharString name="ecedillabreve">
          852 1577 rmoveto
          -119 1 -74 -91 -138 hhcurveto
          -137 -74 91 119 1 111 callgsubr
          -183 128 -136 215 215 128 136 183 vhcurveto
          -652 -965 -32 callgsubr
        </CharString>
        <CharString name="ecircumflex">
          -105 callgsubr
          -519 1355 -102 callgsubr
          endchar
        </CharString>
        <CharString name="ecircumflexacute">
          -105 callgsubr
          -242 1402 0 callgsubr
          -484 -343 -102 callgsubr
          endchar
        </CharString>
        <CharString name="ecircumflexbelow">
          -105 callgsubr
          -519 -435 -102 callgsubr
          endchar
        </CharString>
        <CharString name="ecircumflexdotbelow">
          -105 callgsubr
          -519 1355 -102 callgsubr
          -84 -2061 rmoveto
          -20 callsubr
        </CharString>
        <CharString name="ecircumflexgrave">
          -105 callgsubr
          -5 1402 rmoveto
          -207 296 rlineto
          113 callgsubr
          -372 -47 -102 callgsubr
          endchar
        </CharString>
        <CharString name="ecircumflexhookabove">
          -105 callgsubr
          -519 1355 -102 callgsubr
          38 242 -89 callgsubr
          endchar
        </CharString>
        <CharString name="ecircumflextilde">
          -105 callgsubr
          -581 1615 -103 callsubr
          62 -260 -102 callgsubr
          endchar
        </CharString>
        <CharString name="ecyrillic">
          -14 callsubr
          endchar
        </CharString>
        <CharString name="edblgrave">
          680 1628 -40 callsubr
          404 -1030 -94 callgsubr
        </CharString>
        <CharString name="edieresis">
          -105 callgsubr
          -627 1064 -105 callsubr
        </CharString>
        <CharString name="edotaccent">
          -105 callgsubr
          -435 1051 rmoveto
          -20 callsubr
        </CharString>
        <CharString name="edotbelow">
          -105 callgsubr
          -435 -706 rmoveto
          -20 callsubr
        </CharString>
        <CharString name="efcyrillic">
          570 -357 rmoveto
          128 342 hlineto
          331 17 184 197 338 vvcurveto
          339 -184 198 -331 16 vhcurveto
          363 -128 -363 vlineto
          -331 -16 -184 -198 -339 vvcurveto
          -338 184 -197 331 -17 vhcurveto
          -382 552 rmoveto
          281 131 151 251 7 vhcurveto
          -877 vlineto
          -250 8 -132 151 279 vvcurveto
          510 439 rmoveto
          251 -7 131 -151 -281 vvcurveto
          -279 -132 -151 -250 -8 vhcurveto
          endchar
        </CharString>
        <CharString name="egrave">
          -105 callgsubr
          -330 1030 -48 callsubr
          endchar
        </CharString>
        <CharString name="ehookabove">
          -105 callgsubr
          -597 1227 -89 callgsubr
          endchar
        </CharString>
        <CharString name="eight">
          639 818 rmoveto
          -178 -117 106 160 160 117 106 178 178 117 -106 -160 -160 -117 -106 -178 hvcurveto
          -728 vmoveto
          -208 -144 124 179 179 144 124 208 208 144 -124 -179 -179 -144 -124 -208 hvcurveto
          -123 vmoveto
          285 201 173 245 183 -118 152 -169 34 hvcurveto
          15 vlineto
          143 43 86 123 159 vvcurveto
          224 -178 158 -250 -250 -178 -158 -224 -158 88 -125 140 -42 vhcurveto
          -15 vlineto
          -173 -42 -113 -147 -180 vvcurveto
          -245 201 -173 285 vhcurveto
          endchar
        </CharString>
        <CharString name="einvertedbreve">
          984 1258 -55 callsubr
          94 -992 -94 callgsubr
        </CharString>
        <CharString name="elcyrillic">
          920 966 rmoveto
          -966 131 1077 -694 vlineto
          -49 callsubr
          endchar
        </CharString>
        <CharString name="ellipsis">
          231 62 callgsubr
          402 62 callgsubr
          402 62 callgsubr
          endchar
        </CharString>
        <CharString name="emacron">
          -105 callgsubr
          -116 1111 -73 callgsubr
        </CharString>
        <CharString name="emacronacute">
          960 20 callsubr
          396 -1402 -94 callgsubr
        </CharString>
        <CharString name="emacrongrave">
          -105 callgsubr
          -344 1402 24 callsubr
        </CharString>
        <CharString name="emcyrillic">
          241 837 rmoveto
          13 hlineto
          330 -816 rlineto
          101 hlineto
          327 816 rlineto
          13 -837 118 1077 -143 hlineto
          -358 -895 rlineto
          -11 hlineto
          -359 895 rlineto
          -149 -1077 118 hlineto
          endchar
        </CharString>
        <CharString name="emdash">
          81 callsubr
        </CharString>
        <CharString name="encyrillic">
          81 callgsubr
        </CharString>
        <CharString name="endash">
          81 callsubr
        </CharString>
        <CharString name="eogonek">
          836 -416 rmoveto
          33 33 5 9 27 hvcurveto
          104 vlineto
          -4 -15 -26 -3 -26 hhcurveto
          -72 -51 45 63 71 44 58 138 112 hvcurveto
          85 69 53 76 17 77 rrcurveto
          105 callgsubr
          749 85 vlineto
          322 -159 184 -278 -267 -176 -186 -284 vhcurveto
          -157 vlineto
          -305 167 -181 281 34 41 8 11 22 vhcurveto
          -13 vlineto
          -89 -57 -47 -74 -81 84 callsubr
          vhcurveto
          -192 1395 rmoveto
          190 114 -138 -229 hvcurveto
          -616 hlineto
          230 117 137 195 vhcurveto
          endchar
        </CharString>
        <CharString name="epsilongreek">
          620 -18 -18 callsubr
          endchar
        </CharString>
        <CharString name="epsilontonosgreek">
          620 -19 -18 callsubr
          -33 1315 9 callsubr
          endchar
        </CharString>
        <CharString name="equal">
          1162 366 rmoveto
          115 -1058 -115 vlineto
          1058 431 rmoveto
          115 -1058 -115 vlineto
          endchar
        </CharString>
        <CharString name="ercyrillic">
          676 -54 callsubr
          endchar
        </CharString>
        <CharString name="ereversedcyrillic">
          301 759 -85 callgsubr
        </CharString>
        <CharString name="escyrillic">
          1067 760 -8 callsubr
        </CharString>
        <CharString name="etagreek">
          378 hmoveto
          -4 callsubr
        </CharString>
        <CharString name="etatonosgreek">
          460 83 callgsubr
          -163 -1628 rmoveto
          -4 callsubr
        </CharString>
        <CharString name="eth">
          892 470 rmoveto
          -242 -112 -135 161 callgsubr
          -112 135 242 vhcurveto
          59 vlineto
          238 111 131 201 201 111 -131 -238 vhcurveto
          169 914 rmoveto
          -308 -110 -52 66 -60 61 -66 55 rlinecurve
          -180 hlineto
          87 -68 79 -77 67 -82 -211 -75 rcurveline
          -102 vlineto
          271 97 76 -109 55 -115 28 -112 rlinecurve
          -9 hlineto
          89 -61 -93 46 -123 hhcurveto
          -258 -168 -186 -287 hvcurveto
          -71 vlineto
          -307 161 -173 284 284 161 173 307 vhcurveto
          108 vlineto
          244 -75 236 -137 201 vhcurveto
          248 89 rlineto
          endchar
        </CharString>
        <CharString name="etilde">
          -105 callgsubr
          -581 1165 -101 callgsubr
        </CharString>
        <CharString name="etildebelow">
          -105 callgsubr
          -571 -568 -101 callgsubr
        </CharString>
        <CharString name="exclam">
          556 80 callgsubr
          13 -994 rlineto
          129 hlineto
          13 994 rlineto
          -78 -1456 rmoveto
          114 callgsubr
          113 callsubr
          hvcurveto
          endchar
        </CharString>
        <CharString name="exclamdown">
          633 1106 rmoveto
          113 callsubr
          114 callgsubr
          hvcurveto
          78 -1456 rmoveto
          -13 994 rlineto
          -129 hlineto
          -13 -994 rlineto
          endchar
        </CharString>
        <CharString name="f">
          19 callsubr
          endchar
        </CharString>
        <CharString name="fdotaccent">
          19 callsubr
          -271 341 rmoveto
          -20 callsubr
        </CharString>
        <CharString name="fi">
          366 hmoveto
          966 625 -966 131 1077 -756 120 vlineto
          121 89 63 170 67 62 -5 -7 63 vhcurveto
          110 vlineto
          8 -45 -75 6 -72 hhcurveto
          -256 -134 -101 -191 hvcurveto
          -124 -235 -111 235 -966 vlineto
          807 1272 rmoveto
          -52 callgsubr
          endchar
        </CharString>
        <CharString name="figuredash">
          81 callsubr
        </CharString>
        <CharString name="five">
          619 -29 rmoveto
          284 193 194 286 285 -187 200 -267 -124 -100 -42 -84 -75 hvcurveto
          -15 hlineto
          43 510 rlineto
          647 123 -754 hlineto
          -75 -806 rlineto
          127 hlineto
          109 59 117 65 139 hhcurveto
          196 133 -147 -216 -214 -131 -143 -198 -182 -139 116 166 -16 hvcurveto
          -131 hlineto
          -241 17 183 -161 256 hhcurveto
          endchar
        </CharString>
        <CharString name="fl">
          366 966 rmoveto
          395 111 -395 56 hlineto
          194 71 62 228 vhcurveto
          326 -1389 131 1497 -473 hlineto
          -286 -128 -106 -233 hvcurveto
          -81 -235 -111 235 -966 131 vlineto
          endchar
        </CharString>
        <CharString name="florin">
          283 -24 rmoveto
          201 121 90 230 31 hvcurveto
          62 466 rlineto
          382 113 -366 hlineto
          32 242 rlineto
          154 22 81 80 156 hhcurveto
          77 56 -5 -19 59 hvcurveto
          120 vlineto
          19 -63 -61 5 -86 hhcurveto
          -203 -133 -128 -224 -30 hvcurveto
          -33 -244 rlineto
          -350 -113 334 hlineto
          -61 -454 rlineto
          -158 -21 -84 -51 -131 hhcurveto
          -70 -69 14 26 -66 hvcurveto
          -134 vlineto
          -22 84 46 -7 83 hhcurveto
          endchar
        </CharString>
        <CharString name="four">
          822 hmoveto
          123 319 231 122 -229 429 -125 -434 -518 10 hlineto
          505 997 98 callgsubr
          -509 -1019 rlineto
          -105 662 vlineto
          endchar
        </CharString>
        <CharString name="fraction">
          1266 1443 7 callgsubr
        </CharString>
        <CharString name="franc">
          827 351 rmoveto
          -373 318 595 122 -595 528 651 124 -787 -1092 -158 -105 158 -246 136 246 373 hlineto
          endchar
        </CharString>
        <CharString name="fullblock">
          92 callsubr
          2048 101 callgsubr
        </CharString>
        <CharString name="g">
          -99 callsubr
          endchar
        </CharString>
        <CharString name="gacute">
          678 -84 callsubr
          522 -30 callsubr
        </CharString>
        <CharString name="gammagreek">
          508 -339 rmoveto
          131 318 hlineto
          297 392 120 260 251 vvcurveto
          68 -8 75 -12 52 vhcurveto
          -131 hlineto
          14 -60 6 -56 -79 vvcurveto
          -219 -94 -220 -233 -320 vhcurveto
          -13 hlineto
          -310 954 98 callgsubr
          373 -1096 rlineto
          endchar
        </CharString>
        <CharString name="gbreve">
          -99 callsubr
          1 1781 -82 callsubr
        </CharString>
        <CharString name="gcaron">
          686 1296 -86 callgsubr
          531 -30 callsubr
        </CharString>
        <CharString name="gcircumflex">
          -99 callsubr
          -83 2025 -102 callgsubr
          endchar
        </CharString>
        <CharString name="gcommaaccent">
          -99 callsubr
          51 2068 rmoveto
          -116 -364 rlineto
          140 hlineto
          102 364 rlineto
          endchar
        </CharString>
        <CharString name="gdotaccent">
          -99 callsubr
          1 1721 rmoveto
          -20 callsubr
        </CharString>
        <CharString name="gecyrillic">
          1109 1077 rmoveto
          -950 9 callgsubr
          hlineto
          endchar
        </CharString>
        <CharString name="germandbls">
          390 hmoveto
          1145 vlineto
          156 90 89 159 150 106 -106 -151 -187 -91 -103 -165 vhcurveto
          -50 -138 55 hlineto
          224 130 -111 -192 -198 -103 -103 -199 -44 -54 5 8 -37 hvcurveto
          -116 vlineto
          -8 44 43 -4 48 hhcurveto
          256 181 172 244 207 -125 137 -213 25 hvcurveto
          18 vlineto
          142 48 95 138 158 vvcurveto
          226 -154 144 -241 -231 -144 -138 -222 vhcurveto
          -1143 vlineto
          endchar
        </CharString>
        <CharString name="geupturncyrillic">
          983 1351 rmoveto
          -274 -824 9 callgsubr
          618 vlineto
          endchar
        </CharString>
        <CharString name="gjecyrillic">
          1015 1628 49 callsubr
          353 -219 rmoveto
          -950 9 callgsubr
          hlineto
          endchar
        </CharString>
        <CharString name="glyph1">
          endchar
        </CharString>
        <CharString name="gmacron">
          -99 callsubr
          320 1781 -73 callgsubr
        </CharString>
        <CharString name="grave">
          838 34 callgsubr
          endchar
        </CharString>
        <CharString name="gravecmb">
          838 34 callgsubr
          endchar
        </CharString>
        <CharString name="gravecmb.short">
          585 1914 90 callsubr
        </CharString>
        <CharString name="greater">
          922 647 rmoveto
          -16 vlineto
          -706 -421 rlineto
          -136 vlineto
          833 513 rlineto
          104 vlineto
          -833 513 rlineto
          -136 vlineto
          endchar
        </CharString>
        <CharString name="greaterequal">
          1118 144 rmoveto
          110 -970 -110 vlineto
          1 421 rmoveto
          -127 vlineto
          969 308 rlineto
          115 vlineto
          -969 309 rlineto
          -126 vlineto
          788 -232 rlineto
          -15 vlineto
          endchar
        </CharString>
        <CharString name="greekquestionmark">
          44 callsubr
        </CharString>
        <CharString name="guarani">
          698 629 rmoveto
          336 hlineto
          -328 -113 -181 -223 -18 vhcurveto
          -103 4 rmoveto
          -225 32 -129 217 369 vvcurveto
          352 122 220 232 31 vhcurveto
          574 -578 rmoveto
          -471 581 hlineto
          183 -13 105 -115 32 -200 rrcurveto
          137 hlineto
          -41 273 -154 167 -262 15 rrcurveto
          142 -103 -144 vlineto
          -319 -29 -173 -267 -440 vvcurveto
          -452 174 -261 318 -29 vhcurveto
          -164 103 162 vlineto
          311 18 160 243 386 vvcurveto
          endchar
        </CharString>
        <CharString name="guillemotleft">
          300 640 21 callgsubr
          453 2 21 callgsubr
          endchar
        </CharString>
        <CharString name="guillemotright">
          508 638 20 callgsubr
          453 -2 20 callgsubr
          endchar
        </CharString>
        <CharString name="guilsingleright">
          737 638 20 callgsubr
          endchar
        </CharString>
        <CharString name="guilsinglleft">
          529 640 21 callgsubr
          endchar
        </CharString>
        <CharString name="h">
          207 hmoveto
          -99 callgsubr
          623 -125 hlineto
          endchar
        </CharString>
        <CharString name="hacyrillic">
          638 440 rmoveto
          293 -440 142 callsubr
          -382 547 -52 callsubr
          endchar
        </CharString>
        <CharString name="hardsigncyrillic">
          516 111 rmoveto
          488 239 vlineto
          160 106 -95 -149 -147 -105 -97 -161 hvcurveto
          -239 600 rmoveto
          366 -427 -111 296 -966 370 vlineto
          242 155 138 217 218 -155 138 -242 hvcurveto
          endchar
        </CharString>
        <CharString name="hbar">
          -35 callsubr
        </CharString>
        <CharString name="hbrevebelow">
          207 hmoveto
          -99 callgsubr
          623 -125 hlineto
          426 -1869 -82 callsubr
        </CharString>
        <CharString name="hcaron">
          621 1977 rmoveto
          -155 hlineto
          -190 -202 rlineto
          -12 hlineto
          -190 202 97 callsubr
          289 -297 rlineto
          124 hlineto
          -125 -1680 rmoveto
          -99 callgsubr
          623 -125 hlineto
          endchar
        </CharString>
        <CharString name="hcedilla">
          233 hmoveto
          -64 -157 rlineto
          -67 56 vlineto
          106 49 -27 -54 -55 -50 -35 -82 -40 -59 8 10 -28 hvcurveto
          -87 vlineto
          -13 40 47 -7 56 hhcurveto
          142 89 76 106 101 -79 59 -135 hvcurveto
          57 142 rlineto
          640 vlineto
          -96 callgsubr
          623 -125 -1506 hlineto
          endchar
        </CharString>
        <CharString name="hcircumflex">
          207 hmoveto
          -99 callgsubr
          623 -125 hlineto
          -4 463 -102 callgsubr
          endchar
        </CharString>
        <CharString name="hdieresis">
          207 hmoveto
          -99 callgsubr
          623 -125 hlineto
          -122 223 -105 callsubr
        </CharString>
        <CharString name="hdotaccent">
          207 hmoveto
          -99 callgsubr
          623 -125 hlineto
          58 217 rmoveto
          -20 callsubr
        </CharString>
        <CharString name="hdotbelow">
          207 hmoveto
          -99 callgsubr
          623 -125 hlineto
          426 -1946 rmoveto
          -20 callsubr
        </CharString>
        <CharString name="heavydbldashhorzbxd">
          791 438 rmoveto
          317 244 -317 hlineto
          -633 -244 rmoveto
          317 244 -317 hlineto
          endchar
        </CharString>
        <CharString name="heavydbldashvertbxd">
          511 816 rmoveto
          244 512 -244 hlineto
          -1536 vmoveto
          244 512 -244 hlineto
          endchar
        </CharString>
        <CharString name="heavydnbxd">
          511 -840 rmoveto
          244 1468 -244 hlineto
          endchar
        </CharString>
        <CharString name="heavydnhorzbxd">
          -31 callsubr
          -1538 130 callsubr
          244 43 callsubr
        </CharString>
        <CharString name="heavydnleftbxd">
          120 callsubr
          1522 -891 159 callsubr
        </CharString>
        <CharString name="heavydnrightbxd">
          -31 callsubr
          -891 -1522 244 43 callsubr
        </CharString>
        <CharString name="heavyhorzbxd">
          -136 438 rmoveto
          1538 244 -1538 hlineto
          endchar
        </CharString>
        <CharString name="heavyleftbxd">
          -136 146 callsubr
        </CharString>
        <CharString name="heavyleftlightrightbxd">
          16 callsubr
          54 -837 -244 837 54 vlineto
          endchar
        </CharString>
        <CharString name="heavyquaddashhorzbxd">
          989 438 140 callgsubr
          -316 119 callsubr
          -317 119 callsubr
          -316 119 callsubr
          endchar
        </CharString>
        <CharString name="heavyquaddashvertbxd">
          511 1136 rmoveto
          130 callgsubr
          -896 vmoveto
          130 callgsubr
          -896 vmoveto
          130 callgsubr
          -896 vmoveto
          130 callgsubr
          endchar
        </CharString>
        <CharString name="heavyrightbxd">
          565 146 callsubr
        </CharString>
        <CharString name="heavytrpldashhorzbxd">
          914 438 rmoveto
          282 244 -282 hlineto
          -422 -244 rmoveto
          282 244 -282 hlineto
          -422 -244 rmoveto
          282 244 -282 hlineto
          endchar
        </CharString>
        <CharString name="heavytrpldashvertbxd">
          511 1015 rmoveto
          244 455 -244 hlineto
          -1138 vmoveto
          244 456 -244 hlineto
          -1138 vmoveto
          244 455 -244 hlineto
          endchar
        </CharString>
        <CharString name="heavyupbxd">
          511 492 rmoveto
          244 1468 -244 hlineto
          endchar
        </CharString>
        <CharString name="heavyuphorzbxd">
          -31 callsubr
          -647 1278 -244 -1278 -647 -244 vlineto
          endchar
        </CharString>
        <CharString name="heavyupleftbxd">
          -136 438 rmoveto
          891 1522 -244 -1278 -647 hlineto
          endchar
        </CharString>
        <CharString name="heavyuplightdnbxd">
          755 492 rmoveto
          1468 -244 -1468 54 39 callgsubr
          vlineto
          endchar
        </CharString>
        <CharString name="heavyuprightbxd">
          122 callgsubr
          hlineto
          endchar
        </CharString>
        <CharString name="heavyvertbxd">
          511 -840 rmoveto
          244 2800 -244 hlineto
          endchar
        </CharString>
        <CharString name="heavyverthorzbxd">
          -31 callsubr
          -647 1278 -244 -1278 -647 130 callsubr
          244 43 callsubr
        </CharString>
        <CharString name="heavyvertleftbxd">
          120 callsubr
          2800 -244 -1278 -647 159 callsubr
        </CharString>
        <CharString name="heavyvertrightbxd">
          -31 callsubr
          -647 1278 -244 -2800 244 43 callsubr
        </CharString>
        <CharString name="hlinebelow">
          207 hmoveto
          -99 callgsubr
          623 -125 hlineto
          745 -1892 -73 callgsubr
        </CharString>
        <CharString name="hookabovecmb">
          470 1486 -89 callgsubr
          endchar
        </CharString>
        <CharString name="hookabovecmb.short">
          42 callgsubr
          endchar
        </CharString>
        <CharString name="horncmb">
          633 996 rmoveto
          -19 24 45 -11 36 hhcurveto
          140 95 92 150 hvcurveto
          177 -122 -142 vlineto
          -120 -44 -49 -91 -29 -36 10 20 -18 vhcurveto
          endchar
        </CharString>
        <CharString name="hryvnia">
          946 335 rmoveto
          -141 -24 -108 -94 -179 hhcurveto
          -173 -129 95 139 111 81 66 50 24 hvcurveto
          676 106 -1014 -97 185 -12 hlineto
          -66 -41 -47 -75 -99 vvcurveto
          -200 182 -133 256 256 167 144 207 20 vhcurveto
          61 474 rmoveto
          98 -203 12 vlineto
          64 52 43 72 89 vvcurveto
          199 -165 133 -244 -236 -166 -140 -194 -16 36 callsubr
          122 14 117 95 157 hhcurveto
          157 120 -97 -128 -89 -34 -56 -81 -62 hvcurveto
          -671 -106 hlineto
          endchar
        </CharString>
        <CharString name="hungarumlaut">
          616 15 callgsubr
        </CharString>
        <CharString name="hungarumlautcmb">
          616 15 callgsubr
        </CharString>
        <CharString name="hungarumlautcmb.short">
          553 1617 71 callgsubr
        </CharString>
        <CharString name="hyphen">
          128 callgsubr
        </CharString>
        <CharString name="i">
          653 1362 rmoveto
          -52 callgsubr
          449 -1362 27 callgsubr
        </CharString>
        <CharString name="iacute">
          733 1286 -80 callsubr
          520 -1286 27 callgsubr
        </CharString>
        <CharString name="iacyrillic">
          973 hmoveto
          -59 callsubr
        </CharString>
        <CharString name="ibreve">
          1102 hmoveto
          -62 callsubr
          434 1357 -82 callsubr
        </CharString>
        <CharString name="icaron">
          741 1286 -86 callgsubr
          529 -1286 27 callgsubr
        </CharString>
        <CharString name="icircumflex">
          1102 hmoveto
          -62 callsubr
          350 1611 -102 callgsubr
          endchar
        </CharString>
        <CharString name="icyrillic">
          653 1362 rmoveto
          -52 callgsubr
          449 -1362 27 callgsubr
        </CharString>
        <CharString name="idblgrave">
          696 1618 -40 callsubr
          544 -1286 27 callgsubr
        </CharString>
        <CharString name="idieresis">
          1102 hmoveto
          -62 callsubr
          242 1320 -105 callsubr
        </CharString>
        <CharString name="idieresisacute">
          1102 hmoveto
          -62 callsubr
          339 1658 0 callgsubr
          -303 -634 -105 callsubr
        </CharString>
        <CharString name="idotaccent">
          1102 hmoveto
          -62 callsubr
          434 1297 rmoveto
          -20 callsubr
        </CharString>
        <CharString name="idotbelow">
          653 1362 rmoveto
          -52 callgsubr
          449 -1362 rmoveto
          -62 callsubr
          410 -13 callsubr
          endchar
        </CharString>
        <CharString name="iecyrillic">
          -105 callgsubr
          endchar
        </CharString>
        <CharString name="igrave">
          1102 hmoveto
          -62 callsubr
          539 1286 -48 callsubr
          endchar
        </CharString>
        <CharString name="ihookabove">
          1102 hmoveto
          -62 callsubr
          272 1483 -89 callgsubr
          endchar
        </CharString>
        <CharString name="iicyrillic">
          926 869 -27 callgsubr
        </CharString>
        <CharString name="iinvertedbreve">
          1000 1248 -55 callsubr
          234 -1248 27 callgsubr
        </CharString>
        <CharString name="iishortcyrillic">
          317 -47 callsubr
          489 -687 -27 callgsubr
        </CharString>
        <CharString name="ij">
          423 hmoveto
          1077 150 callgsubr
          vlineto
          682 132 callsubr
          -92 -105 4 6 -55 154 callgsubr
          76 76 -3 103 -11 callgsubr
          -538 hmoveto
          -52 callgsubr
          endchar
        </CharString>
        <CharString name="ijacute">
          984 -84 callsubr
          -400 hmoveto
          259 332 rlineto
          96 callsubr
          692 -219 74 callgsubr
          -92 -105 4 6 -55 154 callgsubr
          76 76 -3 103 18 callgsubr
          -551 12 rmoveto
          1077 150 callgsubr
          vlineto
          endchar
        </CharString>
        <CharString name="imacron">
          1102 hmoveto
          -62 callsubr
          753 1367 -73 callgsubr
        </CharString>
        <CharString name="infinity">
          633 694 rmoveto
          198 -90 -86 84 -112 hhcurveto
          -164 -108 -151 -228 -228 108 -151 164 114 91 89 193 83 hvcurveto
          -198 90 86 -84 112 hhcurveto
          164 108 151 228 228 -108 151 -164 -114 -91 -89 -193 -83 hvcurveto
          447 -97 rmoveto
          -163 -62 -104 -97 -80 -56 66 197 -90 vhcurveto
          197 84 62 74 80 hhcurveto
          97 62 -104 -163 hvcurveto
          -894 hmoveto
          163 62 104 97 80 56 -66 -197 90 vhcurveto
          -197 -84 -62 -74 -80 hhcurveto
          -97 -62 104 163 hvcurveto
          endchar
        </CharString>
        <CharString name="integral">
          315 -316 rmoveto
          187 94 91 211 27 hvcurveto
          153 1170 rlineto
          119 16 59 63 95 hhcurveto
          37 58 -4 -5 24 hvcurveto
          -10 110 rlineto
          4 -26 -47 2 -31 hhcurveto
          -187 -93 -92 -211 -28 hvcurveto
          -153 -1169 rlineto
          -120 -15 -59 -63 -97 hhcurveto
          -35 -60 4 5 -22 hvcurveto
          9 -111 rlineto
          -3 26 48 -1 30 hhcurveto
          endchar
        </CharString>
        <CharString name="invertedbrevecmb">
          976 1258 -55 callsubr
          endchar
        </CharString>
        <CharString name="invertedbrevecmb.short">
          421 -46 callgsubr
          endchar
        </CharString>
        <CharString name="iocyrillic">
          -105 callgsubr
          -627 1064 -105 callsubr
        </CharString>
        <CharString name="iogonek">
          653 1362 rmoveto
          -52 callgsubr
          449 -1256 rmoveto
          -369 971 -512 -106 381 -865 -379 -106 757 hlineto
          -124 -65 -62 -83 -101 vvcurveto
          -102 76 -67 117 53 46 7 11 16 vhcurveto
          106 vlineto
          -5 -13 -33 -4 -26 hhcurveto
          -73 -37 31 62 79 70 81 112 50 hvcurveto
          endchar
        </CharString>
        <CharString name="iotadieresisgreek">
          -28 callsubr
          -541 1316 -105 callsubr
        </CharString>
        <CharString name="iotadieresistonosgreek">
          -28 callsubr
          -393 1306 -41 callgsubr
        </CharString>
        <CharString name="iotagreek">
          -28 callsubr
          endchar
        </CharString>
        <CharString name="iotatonosgreek">
          -28 callsubr
          -338 1306 9 callsubr
          endchar
        </CharString>
        <CharString name="isuperior">
          1015 551 rmoveto
          106 -320 786 -456 -106 332 -680 -331 -106 vlineto
          379 1124 rmoveto
          59 51 50 58 58 -51 50 -59 -59 -51 -50 -58 -58 51 -50 59 hvcurveto
          endchar
        </CharString>
        <CharString name="itilde">
          1102 hmoveto
          -62 callsubr
          288 1425 -101 callgsubr
        </CharString>
        <CharString name="itildebelow">
          653 1362 rmoveto
          -52 callgsubr
          449 -1362 rmoveto
          -62 callsubr
          264 -302 -101 callgsubr
        </CharString>
        <CharString name="iucyrillic">
          818 99 -74 callgsubr
        </CharString>
        <CharString name="j">
          -27 callsubr
          -80 1374 rmoveto
          68 56 56 68 68 -56 56 -68 -68 -56 -56 -68 -68 56 -56 68 hvcurveto
          endchar
        </CharString>
        <CharString name="jcircumflex">
          -27 callsubr
          -149 1633 -102 callgsubr
          endchar
        </CharString>
        <CharString name="jecyrillic">
          -27 callsubr
          -80 1374 rmoveto
          68 56 56 68 68 -56 56 -68 -68 -56 -56 -68 -68 56 -56 68 hvcurveto
          endchar
        </CharString>
        <CharString name="k">
          1140 hmoveto
          -456 660 -43 callsubr
          endchar
        </CharString>
        <CharString name="kacute">
          752 1977 rmoveto
          -174 hlineto
          -310 103 callsubr
          714 -1680 rmoveto
          -456 660 -43 callsubr
          endchar
        </CharString>
        <CharString name="kacyrillic">
          365 1077 47 callsubr
        </CharString>
        <CharString name="kappagreek">
          347 hmoveto
          301 vlineto
          250 261 399 -562 142 callsubr
          -472 656 168 188 rlineto
          102 92 41 25 73 hhcurveto
          21 22 -3 -5 21 hvcurveto
          114 vlineto
          8 -32 -20 2 -27 hhcurveto
          -105 -64 -37 -120 -106 hvcurveto
          -406 -461 rlineto
          -12 608 150 callgsubr
          hlineto
          endchar
        </CharString>
        <CharString name="kcaron">
          420 1680 rmoveto
          289 297 97 callsubr
          -190 -202 rlineto
          -12 hlineto
          -190 202 97 callsubr
          289 -297 rlineto
          844 -1680 rmoveto
          -456 660 -43 callsubr
          endchar
        </CharString>
        <CharString name="kcommaaccent">
          512 -494 rmoveto
          126 hlineto
          116 364 98 callgsubr
          70 790 rmoveto
          -43 callsubr
          158 hlineto
          endchar
        </CharString>
        <CharString name="kdotbelow">
          698 105 callsubr
          -14 874 rmoveto
          -43 callsubr
          158 hlineto
          endchar
        </CharString>
        <CharString name="kip">
          1137 hmoveto
          -530 659 rlineto
          11 567 111 -568 11 vlineto
          531 651 rlineto
          -159 hlineto
          -534 -668 rlineto
          -109 668 -137 -662 -148 -111 148 -670 137 676 105 hlineto
          537 -676 rlineto
          endchar
        </CharString>
        <CharString name="kjecyrillic">
          696 -84 callsubr
          -180 -219 47 callsubr
        </CharString>
        <CharString name="klinebelow">
          426 408 rmoveto
          34 callsubr
          158 hlineto
          -456 660 426 417 rlineto
          -166 hlineto
          -506 -507 rlineto
          -12 936 -131 -1506 131 hlineto
          -27 158 callsubr
          endchar
        </CharString>
        <CharString name="l">
          1102 hmoveto
          107 callsubr
        </CharString>
        <CharString name="lacute">
          706 1713 -80 callsubr
          547 -1713 102 callgsubr
        </CharString>
        <CharString name="lambdagreek">
          274 hmoveto
          365 860 rlineto
          12 hlineto
          239 -677 rlineto
          -149 53 53 -44 125 hhcurveto
          32 32 4 6 18 hvcurveto
          112 vlineto
          -4 -18 -19 -2 -19 hhcurveto
          -66 -43 34 72 -26 hvcurveto
          -351 981 rlineto
          255 -91 -75 76 -166 hhcurveto
          -29 -34 -4 -6 -24 hvcurveto
          -112 vlineto
          4 21 19 2 17 hhcurveto
          124 41 -43 -199 74 hvcurveto
          51 -139 -456 -1027 rlineto
          endchar
        </CharString>
        <CharString name="lari">
          447 768 rmoveto
          96 569 hlineto
          5 29 31 3 33 hhcurveto
          34 33 -3 -7 31 hvcurveto
          -567 95 534 vlineto
          158 -81 89 -189 -259 vvcurveto
          132 hlineto
          329 -139 244 -234 86 vhcurveto
          174 -107 -147 vlineto
          5 -30 -30 2 -32 hhcurveto
          -30 -30 -2 -4 -28 hvcurveto
          146 -106 -169 vlineto
          -244 -79 -145 -235 -330 vvcurveto
          -308 139 -257 236 -106 vhcurveto
          -4 -290 -118 989 118 -331 vlineto
          -344 -258 282 373 274 90 184 163 76 hvcurveto
          endchar
        </CharString>
        <CharString name="lcaron">
          999 1506 rmoveto
          -444 93 vlineto
          37 444 rlineto
          -27 -1506 102 callgsubr
        </CharString>
        <CharString name="lcircumflexbelow">
          1102 hmoveto
          -36 callgsubr
          355 -169 -102 callgsubr
          endchar
        </CharString>
        <CharString name="lcommaaccent">
          1102 hmoveto
          -36 callgsubr
          395 -494 -41 callsubr
        </CharString>
        <CharString name="ldot">
          1102 hmoveto
          -36 callgsubr
          900 710 rmoveto
          -20 callsubr
        </CharString>
        <CharString name="ldotbelow">
          1102 hmoveto
          -36 callgsubr
          439 -13 callsubr
          endchar
        </CharString>
        <CharString name="ldotbelowmacron">
          862 1777 -88 callsubr
          878 -1777 rmoveto
          -36 callgsubr
          439 -13 callsubr
          endchar
        </CharString>
        <CharString name="leftdnheavyrightuplightbxd">
          120 callsubr
          1332 647 136 -647 54 -54 68 callgsubr
          vlineto
          endchar
        </CharString>
        <CharString name="lefteighthblock">
          -464 vmoveto
          158 2048 -158 hlineto
          endchar
        </CharString>
        <CharString name="leftfiveeighthsblock">
          -464 vmoveto
          791 2048 -791 hlineto
          endchar
        </CharString>
        <CharString name="lefthalfblock">
          -464 vmoveto
          159 callgsubr
        </CharString>
        <CharString name="leftheavyrightdnlightbxd">
          104 callsubr
          1332 701 136 -701 54 -837 124 callgsubr
        </CharString>
        <CharString name="leftheavyrightuplightbxd">
          -10 callsubr
          -1278 -701 -244 837 54 vlineto
          endchar
        </CharString>
        <CharString name="leftheavyrightvertlightbxd">
          -10 callsubr
          -1278 -701 -244 701 -1278 124 callsubr
        </CharString>
        <CharString name="leftlightrightdnheavybxd">
          -31 callsubr
          -891 -54 73 callgsubr
        </CharString>
        <CharString name="leftlightrightupheavybxd">
          122 callgsubr
          -1332 -647 160 callgsubr
          hlineto
          endchar
        </CharString>
</ttFont>
